M48
;GenerationSoftware,Autodesk,EAGLE,9.3.1*%
;CreationDate,2019-05-06T21:19:26Z*%
FMAT,2
ICI,OFF
METRIC,TZ,000.000
T10C0.350
T9C0.450
T8C0.480
T7C0.550
T6C0.780
T5C0.813
T4C1.000
T3C1.050
T2C1.200
T1C1.321
%
G90
M71
T1
X74513Y41127
X74478Y36698
X5385Y73096
X5385Y75636
X5385Y83256
X5385Y80716
X5385Y78176
T2
X30946Y97500
X23496Y97500
T3
X29646Y94470
X24796Y94470
T4
X70048Y35687
T5
X3890Y62190
X58083Y52303
X21070Y30540
X18530Y30540
X15990Y30540
X13450Y30540
X62893Y65632
X8370Y30540
X5830Y30540
X3290Y30540
X22954Y37815
X53949Y29970
X56489Y29970
X59029Y29970
X61569Y29970
X64109Y29970
X8890Y37550
X20031Y37277
X11671Y37391
X66404Y65569
X10910Y30540
T6
X13886Y67267
T7
X40158Y58265
X40158Y57165
T8
X69037Y89459
T9
X5883Y33414
X58136Y59385
X8499Y98100
X15202Y93231
X21971Y92959
X19451Y78306
X33835Y78257
X12304Y84044
X16739Y50988
X5987Y49632
X5916Y39434
X61859Y52464
X30951Y37397
X44360Y38073
X49586Y89619
X58128Y33060
X29418Y56970
X3632Y70957
T10
X77373Y56561
X34118Y37192
X70228Y73475
X18186Y78420
X24111Y71889
X49131Y42728
X10000Y84000
X69516Y65943
X52272Y52294
X69255Y71447
X67709Y84493
X67727Y88331
X55801Y90330
X48110Y88636
X39000Y89000
X63589Y69069
X66662Y49950
X63944Y70000
X70475Y49425
X64272Y73909
X46441Y46101
X62881Y75012
X45568Y47267
X62461Y61468
X54630Y58689
X43701Y59535
X33947Y75606
X49535Y58567
X61890Y72885
X60145Y83604
X49774Y85352
X42763Y85875
X33856Y80629
X17630Y66780
X17381Y80005
X48511Y38016
X28738Y37394
X44117Y57076
X46227Y57063
X44150Y51186
X47030Y58725
M30