G04 EAGLE Gerber RS-274X export*
G75*
%MOMM*%
%FSLAX34Y34*%
%LPD*%
%INBottom Copper*%
%IPPOS*%
%AMOC8*
5,1,8,0,0,1.08239X$1,22.5*%
G01*
%ADD10P,3.436588X8X22.500000*%
%ADD11C,1.320800*%
%ADD12R,2.540000X2.540000*%
%ADD13R,1.058000X1.058000*%
%ADD14C,1.058000*%
%ADD15C,1.981200*%
%ADD16P,1.732040X8X22.500000*%
%ADD17C,0.254000*%
%ADD18C,0.756400*%
%ADD19C,0.780000*%
%ADD20C,1.186400*%
%ADD21C,0.508000*%
%ADD22C,0.856400*%
%ADD23C,1.500000*%
%ADD24C,0.886400*%


D10*
X745126Y411275D03*
X744782Y366978D03*
D11*
X641086Y306304D02*
X641086Y293096D01*
X615686Y293096D02*
X615686Y306304D01*
X590286Y306304D02*
X590286Y293096D01*
X564886Y293096D02*
X564886Y306304D01*
X539486Y306304D02*
X539486Y293096D01*
D12*
X309465Y975001D03*
X234965Y975001D03*
D13*
X401577Y571650D03*
D14*
X401577Y582650D03*
D11*
X32900Y312004D02*
X32900Y298796D01*
X58300Y298796D02*
X58300Y312004D01*
X83700Y312004D02*
X83700Y298796D01*
X109100Y298796D02*
X109100Y312004D01*
X134500Y312004D02*
X134500Y298796D01*
X159900Y298796D02*
X159900Y312004D01*
X185300Y312004D02*
X185300Y298796D01*
X210700Y298796D02*
X210700Y312004D01*
D15*
X63758Y730956D02*
X43946Y730956D01*
X43946Y756356D02*
X63758Y756356D01*
X63758Y781756D02*
X43946Y781756D01*
X43946Y807156D02*
X63758Y807156D01*
X63758Y832556D02*
X43946Y832556D01*
D16*
X38900Y621900D03*
X580828Y523029D03*
X229537Y378147D03*
X88900Y375500D03*
X200315Y372773D03*
X116713Y373913D03*
X664040Y655686D03*
X628931Y656322D03*
D17*
X459359Y511861D02*
X441503Y511861D01*
X459359Y511861D02*
X470127Y522629D01*
D18*
X470302Y587246D03*
D17*
X470127Y587071D01*
X470127Y522629D01*
D19*
X441503Y511861D03*
D18*
X462274Y570628D03*
D19*
X441173Y570763D03*
D17*
X462138Y570763D01*
X462274Y570628D01*
D19*
X287376Y373939D03*
X485115Y380162D03*
D20*
X138862Y672668D03*
D18*
X173812Y800049D03*
D17*
X173812Y670288D01*
X176301Y667799D01*
D18*
X176301Y667799D03*
D19*
X338561Y806286D03*
X427634Y858749D03*
X497738Y853516D03*
X601447Y836041D03*
X618896Y728853D03*
X495351Y585673D03*
X339471Y756056D03*
X437011Y595349D03*
X546303Y586892D03*
X624611Y614680D03*
D17*
X719557Y472669D02*
X455676Y472669D01*
X719557Y472669D02*
X748690Y501802D01*
X748690Y617946D01*
X628806Y737830D01*
X628806Y750116D01*
D19*
X455676Y472669D03*
X628806Y750116D03*
D17*
X727126Y461010D02*
X464414Y461010D01*
X727126Y461010D02*
X758114Y491998D01*
X758114Y631495D01*
D19*
X464414Y461010D03*
X642723Y739091D03*
D17*
X650518Y739091D02*
X758114Y631495D01*
X650518Y739091D02*
X642723Y739091D01*
X159900Y317939D02*
X159900Y305400D01*
X200315Y358353D02*
X200315Y372773D01*
X200315Y358353D02*
X159900Y317939D01*
D18*
X704748Y494254D03*
D17*
X709671Y494254D01*
X722122Y506705D01*
X722122Y619709D01*
X641833Y699999D02*
X639445Y699999D01*
X686145Y655686D02*
X722122Y619709D01*
X686145Y655686D02*
X641833Y699999D01*
D19*
X639445Y699999D03*
D17*
X664040Y655686D02*
X686145Y655686D01*
D18*
X666620Y499504D03*
D17*
X666620Y504142D01*
X648589Y522173D01*
X648589Y630000D01*
X648589Y685902D01*
X644296Y690194D01*
D18*
X635893Y690693D03*
D17*
X636392Y690194D02*
X644296Y690194D01*
X636392Y690194D02*
X635893Y690693D01*
X628931Y649658D02*
X648589Y630000D01*
X628931Y649658D02*
X628931Y656322D01*
D21*
X205943Y402243D02*
X109100Y305400D01*
X205943Y498746D02*
X219529Y512332D01*
X380148Y512332D01*
X481205Y411275D01*
X745126Y411275D01*
X205943Y402243D02*
X205943Y498746D01*
D19*
X390000Y890000D03*
X481101Y886358D03*
X558013Y903300D03*
X677266Y883310D03*
X677088Y844931D03*
X692551Y714465D03*
D18*
X522724Y522935D03*
D17*
X522724Y499728D01*
X540766Y481686D02*
X707619Y481686D01*
X738937Y513004D01*
X540766Y481686D02*
X522724Y499728D01*
X738937Y513004D02*
X738937Y615655D01*
D18*
X695164Y659428D03*
D17*
X738937Y615655D01*
D18*
X341177Y371916D03*
D17*
X360848Y371916D01*
X773735Y336525D02*
X773735Y565607D01*
D18*
X773735Y565607D03*
D17*
X459080Y273684D02*
X360848Y371916D01*
X459080Y273684D02*
X710895Y273684D01*
X773735Y336525D01*
D18*
X181864Y784200D03*
D17*
X181864Y750672D01*
X212979Y719557D01*
X240443Y719557D01*
X241109Y718891D01*
D18*
X241109Y718891D03*
D22*
X84988Y980999D03*
X152019Y932307D03*
X219710Y929589D03*
X194513Y783057D03*
X338353Y782574D03*
X123038Y840435D03*
X167386Y509880D03*
X59868Y496316D03*
X59157Y394335D03*
X58826Y334137D03*
X309506Y373974D03*
X443597Y380730D03*
D23*
X700481Y356870D03*
D22*
X581279Y330600D03*
X294183Y569697D03*
X36322Y709574D03*
X495859Y896188D03*
D24*
X690372Y894588D03*
D19*
X702285Y734746D03*
D22*
X618592Y524637D03*
X581355Y593852D03*
D19*
X491312Y427279D03*
D21*
X480755Y427279D01*
X379765Y528269D01*
X217221Y528269D02*
X170536Y481584D01*
X143637Y481584D01*
X86563Y538658D01*
X86563Y826563D01*
X100000Y840000D01*
D19*
X100000Y840000D03*
D21*
X217221Y528269D02*
X379765Y528269D01*
M02*
