G04 EAGLE Gerber RS-274X export*
G75*
%MOMM*%
%FSLAX34Y34*%
%LPD*%
%INEAGLE Copper Layer 15*%
%IPPOS*%
%AMOC8*
5,1,8,0,0,1.08239X$1,22.5*%
G01*
%ADD10C,1.981200*%
%ADD11C,1.320800*%
%ADD12C,1.800000*%
%ADD13C,1.058000*%
%ADD14C,0.756400*%
%ADD15C,1.186400*%
%ADD16C,0.856400*%
%ADD17C,1.500000*%
%ADD18C,0.886400*%

G36*
X784427Y4134D02*
X784427Y4134D01*
X784547Y4141D01*
X784585Y4154D01*
X784624Y4159D01*
X784736Y4203D01*
X784849Y4239D01*
X784883Y4261D01*
X784920Y4275D01*
X785017Y4346D01*
X785118Y4410D01*
X785145Y4439D01*
X785178Y4462D01*
X785254Y4554D01*
X785336Y4641D01*
X785355Y4676D01*
X785381Y4707D01*
X785431Y4815D01*
X785489Y4920D01*
X785499Y4959D01*
X785516Y4995D01*
X785539Y5112D01*
X785569Y5228D01*
X785572Y5287D01*
X785576Y5307D01*
X785575Y5327D01*
X785579Y5388D01*
X785521Y384920D01*
X785506Y385038D01*
X785498Y385157D01*
X785486Y385196D01*
X785481Y385236D01*
X785437Y385346D01*
X785400Y385459D01*
X785379Y385494D01*
X785364Y385531D01*
X785294Y385628D01*
X785230Y385728D01*
X785201Y385756D01*
X785177Y385789D01*
X785085Y385864D01*
X784999Y385946D01*
X784963Y385966D01*
X784932Y385991D01*
X784824Y386042D01*
X784720Y386100D01*
X784681Y386110D01*
X784644Y386127D01*
X784527Y386149D01*
X784412Y386179D01*
X784352Y386183D01*
X784332Y386187D01*
X784311Y386185D01*
X784251Y386189D01*
X648422Y386189D01*
X646189Y388422D01*
X646189Y694737D01*
X646172Y694875D01*
X646159Y695013D01*
X646152Y695032D01*
X646149Y695052D01*
X646098Y695182D01*
X646051Y695313D01*
X646040Y695329D01*
X646032Y695348D01*
X645951Y695460D01*
X645873Y695576D01*
X645857Y695589D01*
X645846Y695606D01*
X645738Y695694D01*
X645634Y695786D01*
X645616Y695795D01*
X645601Y695808D01*
X645475Y695868D01*
X645351Y695931D01*
X645331Y695935D01*
X645313Y695944D01*
X645176Y695970D01*
X645041Y696000D01*
X645020Y696000D01*
X645001Y696004D01*
X644862Y695995D01*
X644723Y695991D01*
X644703Y695985D01*
X644683Y695984D01*
X644551Y695941D01*
X644417Y695902D01*
X644400Y695892D01*
X644381Y695886D01*
X644263Y695811D01*
X644143Y695741D01*
X644122Y695722D01*
X644112Y695716D01*
X644098Y695701D01*
X644023Y695634D01*
X643027Y694638D01*
X642557Y694444D01*
X642453Y694385D01*
X642346Y694333D01*
X642316Y694306D01*
X642280Y694286D01*
X642195Y694203D01*
X642104Y694126D01*
X642081Y694093D01*
X642052Y694065D01*
X641990Y693963D01*
X641921Y693866D01*
X641907Y693828D01*
X641886Y693794D01*
X641851Y693680D01*
X641809Y693569D01*
X641804Y693529D01*
X641792Y693490D01*
X641787Y693371D01*
X641773Y693253D01*
X641779Y693213D01*
X641777Y693172D01*
X641801Y693056D01*
X641818Y692938D01*
X641837Y692881D01*
X641841Y692861D01*
X641850Y692842D01*
X641870Y692785D01*
X642216Y691951D01*
X642216Y689435D01*
X641253Y687112D01*
X639474Y685333D01*
X637151Y684370D01*
X634635Y684370D01*
X632311Y685333D01*
X630533Y687112D01*
X629570Y689435D01*
X629570Y691951D01*
X630533Y694275D01*
X632311Y696053D01*
X632781Y696248D01*
X632885Y696307D01*
X632991Y696359D01*
X633022Y696385D01*
X633057Y696405D01*
X633143Y696489D01*
X633233Y696566D01*
X633257Y696599D01*
X633286Y696627D01*
X633348Y696728D01*
X633417Y696826D01*
X633431Y696863D01*
X633452Y696898D01*
X633487Y697012D01*
X633529Y697123D01*
X633534Y697163D01*
X633546Y697202D01*
X633551Y697320D01*
X633564Y697439D01*
X633559Y697479D01*
X633561Y697519D01*
X633537Y697636D01*
X633520Y697754D01*
X633501Y697811D01*
X633496Y697831D01*
X633487Y697849D01*
X633468Y697906D01*
X633122Y698741D01*
X633122Y701256D01*
X634085Y703580D01*
X635863Y705359D01*
X638187Y706321D01*
X640703Y706321D01*
X643027Y705359D01*
X644023Y704363D01*
X644132Y704278D01*
X644239Y704189D01*
X644258Y704180D01*
X644274Y704168D01*
X644401Y704113D01*
X644527Y704053D01*
X644547Y704050D01*
X644566Y704041D01*
X644704Y704020D01*
X644840Y703994D01*
X644860Y703995D01*
X644880Y703992D01*
X645019Y704005D01*
X645157Y704013D01*
X645176Y704020D01*
X645196Y704021D01*
X645328Y704069D01*
X645459Y704111D01*
X645477Y704122D01*
X645496Y704129D01*
X645611Y704207D01*
X645728Y704281D01*
X645742Y704296D01*
X645759Y704308D01*
X645851Y704412D01*
X645946Y704513D01*
X645956Y704531D01*
X645969Y704546D01*
X646032Y704670D01*
X646100Y704792D01*
X646105Y704811D01*
X646114Y704829D01*
X646144Y704965D01*
X646179Y705100D01*
X646181Y705128D01*
X646184Y705140D01*
X646183Y705160D01*
X646189Y705260D01*
X646189Y731783D01*
X646183Y731833D01*
X646185Y731882D01*
X646163Y731990D01*
X646149Y732099D01*
X646131Y732145D01*
X646121Y732194D01*
X646073Y732292D01*
X646032Y732395D01*
X646003Y732435D01*
X645981Y732479D01*
X645910Y732563D01*
X645846Y732652D01*
X645807Y732684D01*
X645775Y732721D01*
X645685Y732785D01*
X645601Y732855D01*
X645556Y732876D01*
X645515Y732905D01*
X645412Y732943D01*
X645313Y732990D01*
X645264Y733000D01*
X645218Y733017D01*
X645108Y733029D01*
X645001Y733050D01*
X644951Y733047D01*
X644902Y733052D01*
X644793Y733037D01*
X644683Y733030D01*
X644636Y733015D01*
X644587Y733008D01*
X644434Y732956D01*
X643981Y732768D01*
X641466Y732768D01*
X639142Y733731D01*
X637363Y735509D01*
X636401Y737833D01*
X636401Y740349D01*
X637363Y742673D01*
X639142Y744451D01*
X641466Y745414D01*
X643981Y745414D01*
X644434Y745226D01*
X644482Y745213D01*
X644527Y745192D01*
X644635Y745171D01*
X644741Y745142D01*
X644791Y745141D01*
X644840Y745132D01*
X644949Y745139D01*
X645059Y745137D01*
X645107Y745149D01*
X645157Y745152D01*
X645261Y745186D01*
X645368Y745211D01*
X645412Y745234D01*
X645459Y745250D01*
X645552Y745309D01*
X645649Y745360D01*
X645686Y745393D01*
X645728Y745420D01*
X645803Y745500D01*
X645885Y745574D01*
X645912Y745615D01*
X645946Y745652D01*
X645999Y745748D01*
X646059Y745840D01*
X646076Y745887D01*
X646100Y745930D01*
X646127Y746036D01*
X646163Y746140D01*
X646167Y746190D01*
X646179Y746238D01*
X646189Y746399D01*
X646189Y864920D01*
X646174Y865038D01*
X646167Y865157D01*
X646154Y865195D01*
X646149Y865236D01*
X646106Y865346D01*
X646069Y865459D01*
X646047Y865494D01*
X646032Y865531D01*
X645963Y865627D01*
X645899Y865728D01*
X645869Y865756D01*
X645846Y865789D01*
X645754Y865865D01*
X645667Y865946D01*
X645632Y865966D01*
X645601Y865991D01*
X645493Y866042D01*
X645389Y866100D01*
X645349Y866110D01*
X645313Y866127D01*
X645196Y866149D01*
X645081Y866179D01*
X645021Y866183D01*
X645001Y866187D01*
X644980Y866185D01*
X644920Y866189D01*
X328266Y866189D01*
X326034Y868422D01*
X326034Y989231D01*
X326019Y989349D01*
X326011Y989468D01*
X325999Y989506D01*
X325994Y989547D01*
X325950Y989657D01*
X325913Y989770D01*
X325892Y989805D01*
X325877Y989842D01*
X325807Y989938D01*
X325743Y990039D01*
X325714Y990067D01*
X325690Y990100D01*
X325598Y990176D01*
X325512Y990257D01*
X325476Y990277D01*
X325445Y990302D01*
X325337Y990353D01*
X325233Y990411D01*
X325194Y990421D01*
X325157Y990438D01*
X325040Y990460D01*
X324925Y990490D01*
X324865Y990494D01*
X324845Y990498D01*
X324825Y990496D01*
X324764Y990500D01*
X5842Y990500D01*
X5724Y990485D01*
X5605Y990478D01*
X5567Y990465D01*
X5526Y990460D01*
X5416Y990417D01*
X5303Y990380D01*
X5268Y990358D01*
X5231Y990343D01*
X5135Y990274D01*
X5034Y990210D01*
X5006Y990180D01*
X4973Y990157D01*
X4897Y990065D01*
X4816Y989978D01*
X4796Y989943D01*
X4771Y989912D01*
X4720Y989804D01*
X4662Y989700D01*
X4652Y989660D01*
X4635Y989624D01*
X4613Y989507D01*
X4583Y989392D01*
X4579Y989332D01*
X4575Y989312D01*
X4577Y989291D01*
X4573Y989231D01*
X4573Y5839D01*
X4588Y5721D01*
X4595Y5602D01*
X4607Y5564D01*
X4613Y5523D01*
X4656Y5413D01*
X4693Y5300D01*
X4715Y5265D01*
X4730Y5227D01*
X4799Y5131D01*
X4863Y5031D01*
X4892Y5003D01*
X4916Y4970D01*
X5008Y4894D01*
X5094Y4813D01*
X5130Y4793D01*
X5161Y4767D01*
X5269Y4717D01*
X5373Y4659D01*
X5412Y4649D01*
X5449Y4632D01*
X5565Y4609D01*
X5681Y4580D01*
X5741Y4576D01*
X5761Y4572D01*
X5782Y4573D01*
X5841Y4569D01*
X784309Y4119D01*
X784427Y4134D01*
G37*
G36*
X784369Y388746D02*
X784369Y388746D01*
X784488Y388753D01*
X784526Y388766D01*
X784566Y388771D01*
X784677Y388814D01*
X784790Y388851D01*
X784824Y388873D01*
X784862Y388888D01*
X784958Y388958D01*
X785059Y389021D01*
X785087Y389051D01*
X785119Y389074D01*
X785195Y389166D01*
X785277Y389253D01*
X785296Y389288D01*
X785322Y389319D01*
X785373Y389427D01*
X785430Y389532D01*
X785440Y389571D01*
X785458Y389607D01*
X785480Y389724D01*
X785510Y389839D01*
X785514Y389900D01*
X785517Y389919D01*
X785516Y389940D01*
X785520Y390000D01*
X785428Y989231D01*
X785413Y989349D01*
X785406Y989468D01*
X785393Y989507D01*
X785388Y989547D01*
X785344Y989657D01*
X785308Y989770D01*
X785286Y989805D01*
X785271Y989842D01*
X785201Y989939D01*
X785138Y990039D01*
X785108Y990067D01*
X785084Y990100D01*
X784993Y990175D01*
X784906Y990257D01*
X784870Y990277D01*
X784839Y990302D01*
X784732Y990353D01*
X784628Y990411D01*
X784588Y990421D01*
X784552Y990438D01*
X784435Y990460D01*
X784320Y990490D01*
X784259Y990494D01*
X784239Y990498D01*
X784219Y990496D01*
X784159Y990500D01*
X329844Y990500D01*
X329726Y990485D01*
X329608Y990478D01*
X329569Y990465D01*
X329529Y990460D01*
X329418Y990417D01*
X329305Y990380D01*
X329271Y990358D01*
X329233Y990343D01*
X329137Y990274D01*
X329036Y990210D01*
X329009Y990180D01*
X328976Y990157D01*
X328900Y990065D01*
X328818Y989978D01*
X328799Y989943D01*
X328773Y989912D01*
X328722Y989804D01*
X328665Y989700D01*
X328655Y989660D01*
X328638Y989624D01*
X328615Y989507D01*
X328585Y989392D01*
X328582Y989332D01*
X328578Y989312D01*
X328579Y989291D01*
X328575Y989231D01*
X328575Y870000D01*
X328590Y869882D01*
X328597Y869763D01*
X328610Y869725D01*
X328615Y869684D01*
X328659Y869574D01*
X328696Y869461D01*
X328717Y869426D01*
X328732Y869389D01*
X328802Y869293D01*
X328866Y869192D01*
X328895Y869164D01*
X328919Y869131D01*
X329011Y869056D01*
X329097Y868974D01*
X329133Y868954D01*
X329164Y868929D01*
X329272Y868878D01*
X329376Y868820D01*
X329415Y868810D01*
X329452Y868793D01*
X329568Y868771D01*
X329684Y868741D01*
X329744Y868737D01*
X329764Y868733D01*
X329784Y868735D01*
X329844Y868731D01*
X648731Y868731D01*
X648731Y741363D01*
X648732Y741353D01*
X648731Y741344D01*
X648752Y741196D01*
X648771Y741047D01*
X648774Y741038D01*
X648775Y741029D01*
X648827Y740877D01*
X649046Y740349D01*
X649046Y737833D01*
X648827Y737305D01*
X648825Y737296D01*
X648820Y737288D01*
X648783Y737143D01*
X648743Y736998D01*
X648743Y736989D01*
X648741Y736980D01*
X648731Y736819D01*
X648731Y390000D01*
X648746Y389882D01*
X648753Y389763D01*
X648766Y389725D01*
X648771Y389684D01*
X648814Y389574D01*
X648851Y389461D01*
X648873Y389426D01*
X648888Y389389D01*
X648958Y389293D01*
X649021Y389192D01*
X649051Y389164D01*
X649074Y389131D01*
X649166Y389056D01*
X649253Y388974D01*
X649288Y388954D01*
X649319Y388929D01*
X649427Y388878D01*
X649531Y388820D01*
X649571Y388810D01*
X649607Y388793D01*
X649724Y388771D01*
X649839Y388741D01*
X649900Y388737D01*
X649920Y388733D01*
X649940Y388735D01*
X650000Y388731D01*
X784251Y388731D01*
X784369Y388746D01*
G37*
%LPC*%
G36*
X51376Y718509D02*
X51376Y718509D01*
X46801Y720404D01*
X43300Y723906D01*
X41405Y728480D01*
X41405Y733432D01*
X43300Y738006D01*
X46801Y741508D01*
X49156Y742483D01*
X49277Y742552D01*
X49400Y742617D01*
X49415Y742631D01*
X49432Y742641D01*
X49532Y742738D01*
X49635Y742831D01*
X49646Y742848D01*
X49661Y742862D01*
X49733Y742980D01*
X49810Y743097D01*
X49817Y743116D01*
X49827Y743133D01*
X49868Y743266D01*
X49913Y743398D01*
X49915Y743418D01*
X49921Y743437D01*
X49927Y743576D01*
X49938Y743715D01*
X49935Y743735D01*
X49936Y743755D01*
X49908Y743891D01*
X49884Y744028D01*
X49876Y744047D01*
X49872Y744066D01*
X49810Y744191D01*
X49753Y744318D01*
X49741Y744334D01*
X49732Y744352D01*
X49641Y744458D01*
X49555Y744566D01*
X49539Y744579D01*
X49526Y744594D01*
X49412Y744674D01*
X49301Y744758D01*
X49276Y744770D01*
X49266Y744777D01*
X49246Y744784D01*
X49156Y744829D01*
X46801Y745804D01*
X43300Y749306D01*
X41405Y753880D01*
X41405Y758832D01*
X43300Y763406D01*
X46801Y766908D01*
X49156Y767883D01*
X49277Y767952D01*
X49400Y768017D01*
X49415Y768031D01*
X49432Y768041D01*
X49532Y768138D01*
X49635Y768231D01*
X49646Y768248D01*
X49661Y768262D01*
X49733Y768380D01*
X49810Y768497D01*
X49817Y768516D01*
X49827Y768533D01*
X49868Y768666D01*
X49913Y768798D01*
X49915Y768818D01*
X49921Y768837D01*
X49927Y768976D01*
X49938Y769115D01*
X49935Y769135D01*
X49936Y769155D01*
X49908Y769291D01*
X49884Y769428D01*
X49876Y769447D01*
X49872Y769466D01*
X49810Y769591D01*
X49753Y769718D01*
X49741Y769734D01*
X49732Y769752D01*
X49641Y769858D01*
X49555Y769966D01*
X49539Y769979D01*
X49526Y769994D01*
X49412Y770074D01*
X49301Y770158D01*
X49276Y770170D01*
X49266Y770177D01*
X49246Y770184D01*
X49156Y770229D01*
X46801Y771204D01*
X43300Y774706D01*
X41405Y779280D01*
X41405Y784232D01*
X43300Y788806D01*
X46801Y792308D01*
X49156Y793283D01*
X49277Y793352D01*
X49400Y793417D01*
X49415Y793431D01*
X49432Y793441D01*
X49532Y793538D01*
X49635Y793631D01*
X49646Y793648D01*
X49661Y793662D01*
X49733Y793780D01*
X49810Y793897D01*
X49817Y793916D01*
X49827Y793933D01*
X49868Y794066D01*
X49913Y794198D01*
X49915Y794218D01*
X49921Y794237D01*
X49927Y794376D01*
X49938Y794515D01*
X49935Y794535D01*
X49936Y794555D01*
X49908Y794691D01*
X49884Y794828D01*
X49876Y794847D01*
X49872Y794866D01*
X49810Y794991D01*
X49753Y795118D01*
X49741Y795134D01*
X49732Y795152D01*
X49641Y795258D01*
X49555Y795366D01*
X49539Y795379D01*
X49526Y795394D01*
X49412Y795474D01*
X49301Y795558D01*
X49276Y795570D01*
X49266Y795577D01*
X49246Y795584D01*
X49156Y795629D01*
X46801Y796604D01*
X43300Y800106D01*
X41405Y804680D01*
X41405Y809632D01*
X43300Y814206D01*
X46801Y817708D01*
X49156Y818683D01*
X49277Y818752D01*
X49400Y818817D01*
X49415Y818831D01*
X49432Y818841D01*
X49532Y818938D01*
X49635Y819031D01*
X49646Y819048D01*
X49661Y819062D01*
X49733Y819180D01*
X49810Y819297D01*
X49817Y819316D01*
X49827Y819333D01*
X49868Y819466D01*
X49913Y819598D01*
X49915Y819618D01*
X49921Y819637D01*
X49927Y819776D01*
X49938Y819915D01*
X49935Y819935D01*
X49936Y819955D01*
X49908Y820091D01*
X49884Y820228D01*
X49876Y820247D01*
X49872Y820266D01*
X49810Y820391D01*
X49753Y820518D01*
X49741Y820534D01*
X49732Y820552D01*
X49641Y820658D01*
X49555Y820766D01*
X49539Y820779D01*
X49526Y820794D01*
X49412Y820874D01*
X49301Y820958D01*
X49276Y820970D01*
X49266Y820977D01*
X49246Y820984D01*
X49156Y821029D01*
X46801Y822004D01*
X43300Y825506D01*
X41405Y830080D01*
X41405Y835032D01*
X43300Y839606D01*
X46801Y843108D01*
X51376Y845003D01*
X56327Y845003D01*
X60902Y843108D01*
X64403Y839606D01*
X66298Y835032D01*
X66298Y830080D01*
X64403Y825506D01*
X60902Y822004D01*
X58547Y821029D01*
X58426Y820960D01*
X58303Y820895D01*
X58288Y820881D01*
X58271Y820871D01*
X58171Y820774D01*
X58068Y820681D01*
X58057Y820664D01*
X58042Y820650D01*
X57969Y820531D01*
X57893Y820415D01*
X57887Y820396D01*
X57876Y820379D01*
X57835Y820246D01*
X57790Y820114D01*
X57788Y820094D01*
X57782Y820075D01*
X57776Y819936D01*
X57765Y819797D01*
X57768Y819777D01*
X57767Y819757D01*
X57795Y819621D01*
X57819Y819484D01*
X57827Y819465D01*
X57832Y819446D01*
X57893Y819320D01*
X57950Y819194D01*
X57962Y819178D01*
X57971Y819160D01*
X58062Y819054D01*
X58148Y818946D01*
X58165Y818933D01*
X58178Y818918D01*
X58291Y818838D01*
X58402Y818754D01*
X58428Y818742D01*
X58438Y818735D01*
X58457Y818728D01*
X58547Y818683D01*
X60902Y817708D01*
X64403Y814206D01*
X66298Y809632D01*
X66298Y804680D01*
X64403Y800106D01*
X60902Y796604D01*
X58547Y795629D01*
X58426Y795560D01*
X58303Y795495D01*
X58288Y795481D01*
X58271Y795471D01*
X58171Y795374D01*
X58068Y795281D01*
X58057Y795264D01*
X58042Y795250D01*
X57969Y795131D01*
X57893Y795015D01*
X57887Y794996D01*
X57876Y794979D01*
X57835Y794846D01*
X57790Y794714D01*
X57788Y794694D01*
X57782Y794675D01*
X57776Y794536D01*
X57765Y794397D01*
X57768Y794377D01*
X57767Y794357D01*
X57795Y794221D01*
X57819Y794084D01*
X57827Y794065D01*
X57832Y794046D01*
X57893Y793920D01*
X57950Y793794D01*
X57962Y793778D01*
X57971Y793760D01*
X58062Y793654D01*
X58148Y793546D01*
X58165Y793533D01*
X58178Y793518D01*
X58291Y793438D01*
X58402Y793354D01*
X58428Y793342D01*
X58438Y793335D01*
X58457Y793328D01*
X58547Y793283D01*
X60902Y792308D01*
X64403Y788806D01*
X66298Y784232D01*
X66298Y779280D01*
X64403Y774706D01*
X60902Y771204D01*
X58547Y770229D01*
X58426Y770160D01*
X58303Y770095D01*
X58288Y770081D01*
X58271Y770071D01*
X58171Y769974D01*
X58068Y769881D01*
X58057Y769864D01*
X58042Y769850D01*
X57969Y769731D01*
X57893Y769615D01*
X57887Y769596D01*
X57876Y769579D01*
X57835Y769446D01*
X57790Y769314D01*
X57788Y769294D01*
X57782Y769275D01*
X57776Y769136D01*
X57765Y768997D01*
X57768Y768977D01*
X57767Y768957D01*
X57795Y768821D01*
X57819Y768684D01*
X57827Y768665D01*
X57832Y768646D01*
X57893Y768520D01*
X57950Y768394D01*
X57962Y768378D01*
X57971Y768360D01*
X58062Y768254D01*
X58148Y768146D01*
X58165Y768133D01*
X58178Y768118D01*
X58291Y768038D01*
X58402Y767954D01*
X58428Y767942D01*
X58438Y767935D01*
X58457Y767928D01*
X58547Y767883D01*
X60902Y766908D01*
X64403Y763406D01*
X66298Y758832D01*
X66298Y753880D01*
X64403Y749306D01*
X60902Y745804D01*
X58547Y744829D01*
X58426Y744760D01*
X58303Y744695D01*
X58288Y744681D01*
X58271Y744671D01*
X58171Y744574D01*
X58068Y744481D01*
X58057Y744464D01*
X58042Y744450D01*
X57969Y744331D01*
X57893Y744215D01*
X57887Y744196D01*
X57876Y744179D01*
X57835Y744046D01*
X57790Y743914D01*
X57788Y743894D01*
X57782Y743875D01*
X57776Y743736D01*
X57765Y743597D01*
X57768Y743577D01*
X57767Y743557D01*
X57795Y743421D01*
X57819Y743284D01*
X57827Y743265D01*
X57832Y743246D01*
X57893Y743120D01*
X57950Y742994D01*
X57962Y742978D01*
X57971Y742960D01*
X58062Y742854D01*
X58148Y742746D01*
X58165Y742733D01*
X58178Y742718D01*
X58291Y742638D01*
X58402Y742554D01*
X58428Y742542D01*
X58438Y742535D01*
X58457Y742528D01*
X58547Y742483D01*
X60902Y741508D01*
X64403Y738006D01*
X66298Y733432D01*
X66298Y728480D01*
X64403Y723906D01*
X60902Y720404D01*
X56327Y718509D01*
X51376Y718509D01*
G37*
%LPD*%
%LPC*%
G36*
X742306Y354531D02*
X742306Y354531D01*
X737732Y356426D01*
X734230Y359927D01*
X732335Y364502D01*
X732335Y369453D01*
X734230Y374028D01*
X737732Y377529D01*
X742306Y379424D01*
X747258Y379424D01*
X751833Y377529D01*
X755334Y374028D01*
X757229Y369453D01*
X757229Y364502D01*
X755334Y359927D01*
X751833Y356426D01*
X747258Y354531D01*
X742306Y354531D01*
G37*
%LPD*%
%LPC*%
G36*
X307169Y963461D02*
X307169Y963461D01*
X302927Y965218D01*
X299681Y968464D01*
X297924Y972706D01*
X297924Y977297D01*
X299681Y981539D01*
X302927Y984785D01*
X307169Y986542D01*
X311760Y986542D01*
X316002Y984785D01*
X319248Y981539D01*
X321005Y977297D01*
X321005Y972706D01*
X319248Y968464D01*
X316002Y965218D01*
X311760Y963461D01*
X307169Y963461D01*
G37*
%LPD*%
%LPC*%
G36*
X232669Y963461D02*
X232669Y963461D01*
X228427Y965218D01*
X225181Y968464D01*
X223424Y972706D01*
X223424Y977297D01*
X225181Y981539D01*
X228427Y984785D01*
X232669Y986542D01*
X237260Y986542D01*
X241502Y984785D01*
X244748Y981539D01*
X246505Y977297D01*
X246505Y972706D01*
X244748Y968464D01*
X241502Y965218D01*
X237260Y963461D01*
X232669Y963461D01*
G37*
%LPD*%
%LPC*%
G36*
X400019Y563819D02*
X400019Y563819D01*
X397141Y565011D01*
X394938Y567214D01*
X393746Y570092D01*
X393746Y573207D01*
X394938Y576086D01*
X395105Y576252D01*
X395178Y576347D01*
X395257Y576436D01*
X395275Y576472D01*
X395300Y576504D01*
X395347Y576613D01*
X395401Y576719D01*
X395410Y576758D01*
X395426Y576795D01*
X395445Y576913D01*
X395471Y577029D01*
X395470Y577070D01*
X395476Y577109D01*
X395465Y577228D01*
X395461Y577347D01*
X395450Y577386D01*
X395446Y577426D01*
X395406Y577538D01*
X395373Y577653D01*
X395352Y577687D01*
X395339Y577725D01*
X395272Y577824D01*
X395211Y577926D01*
X395171Y577972D01*
X395160Y577989D01*
X395145Y578002D01*
X395105Y578047D01*
X394938Y578214D01*
X393746Y581092D01*
X393746Y584207D01*
X394938Y587086D01*
X397141Y589288D01*
X400019Y590481D01*
X403134Y590481D01*
X406012Y589288D01*
X408215Y587086D01*
X409407Y584207D01*
X409407Y581092D01*
X408215Y578214D01*
X408048Y578047D01*
X407975Y577953D01*
X407897Y577864D01*
X407878Y577828D01*
X407854Y577796D01*
X407806Y577687D01*
X407752Y577581D01*
X407743Y577541D01*
X407727Y577504D01*
X407708Y577386D01*
X407682Y577270D01*
X407684Y577230D01*
X407677Y577190D01*
X407689Y577071D01*
X407692Y576953D01*
X407703Y576914D01*
X407707Y576873D01*
X407747Y576761D01*
X407781Y576647D01*
X407801Y576612D01*
X407815Y576574D01*
X407882Y576476D01*
X407942Y576373D01*
X407982Y576328D01*
X407993Y576311D01*
X408009Y576298D01*
X408048Y576252D01*
X408215Y576086D01*
X409407Y573207D01*
X409407Y570092D01*
X408215Y567214D01*
X406012Y565011D01*
X403134Y563819D01*
X400019Y563819D01*
G37*
%LPD*%
%LPC*%
G36*
X698484Y346829D02*
X698484Y346829D01*
X694794Y348358D01*
X691969Y351182D01*
X690440Y354873D01*
X690440Y358867D01*
X691969Y362558D01*
X694794Y365382D01*
X698484Y366911D01*
X702478Y366911D01*
X706169Y365382D01*
X708993Y362558D01*
X710522Y358867D01*
X710522Y354873D01*
X708993Y351182D01*
X706169Y348358D01*
X702478Y346829D01*
X698484Y346829D01*
G37*
%LPD*%
%LPC*%
G36*
X193156Y776234D02*
X193156Y776234D01*
X190648Y777273D01*
X188729Y779192D01*
X188598Y779510D01*
X188573Y779553D01*
X188556Y779600D01*
X188494Y779690D01*
X188440Y779786D01*
X188405Y779822D01*
X188378Y779863D01*
X188295Y779935D01*
X188219Y780014D01*
X188176Y780040D01*
X188139Y780073D01*
X188041Y780123D01*
X187948Y780181D01*
X187900Y780195D01*
X187856Y780218D01*
X187749Y780242D01*
X187644Y780274D01*
X187594Y780277D01*
X187546Y780287D01*
X187436Y780284D01*
X187326Y780289D01*
X187277Y780279D01*
X187228Y780278D01*
X187122Y780247D01*
X187015Y780225D01*
X186970Y780203D01*
X186922Y780189D01*
X186828Y780134D01*
X186729Y780085D01*
X186691Y780053D01*
X186648Y780028D01*
X186527Y779921D01*
X185446Y778839D01*
X183122Y777877D01*
X180606Y777877D01*
X178282Y778839D01*
X176504Y780618D01*
X175541Y782942D01*
X175541Y785457D01*
X176504Y787781D01*
X178282Y789560D01*
X180606Y790522D01*
X183122Y790522D01*
X185445Y789560D01*
X187231Y787774D01*
X187293Y787683D01*
X187347Y787588D01*
X187382Y787552D01*
X187410Y787511D01*
X187492Y787438D01*
X187569Y787359D01*
X187611Y787333D01*
X187648Y787300D01*
X187746Y787250D01*
X187840Y787193D01*
X187887Y787178D01*
X187932Y787156D01*
X188039Y787132D01*
X188144Y787099D01*
X188193Y787097D01*
X188242Y787086D01*
X188352Y787089D01*
X188461Y787084D01*
X188510Y787094D01*
X188560Y787096D01*
X188665Y787126D01*
X188773Y787148D01*
X188817Y787170D01*
X188865Y787184D01*
X188960Y787240D01*
X189058Y787288D01*
X189096Y787320D01*
X189139Y787346D01*
X189260Y787452D01*
X190648Y788841D01*
X193156Y789879D01*
X195870Y789879D01*
X198378Y788841D01*
X200297Y786921D01*
X201336Y784414D01*
X201336Y781699D01*
X200297Y779192D01*
X198378Y777273D01*
X195870Y776234D01*
X193156Y776234D01*
G37*
%LPD*%
%LPC*%
G36*
X537667Y290555D02*
X537667Y290555D01*
X534306Y291947D01*
X531734Y294520D01*
X530342Y297881D01*
X530342Y301519D01*
X531734Y304880D01*
X534306Y307453D01*
X537667Y308845D01*
X541305Y308845D01*
X544666Y307453D01*
X547239Y304880D01*
X548631Y301519D01*
X548631Y297881D01*
X547239Y294520D01*
X544666Y291947D01*
X541305Y290555D01*
X537667Y290555D01*
G37*
%LPD*%
%LPC*%
G36*
X627112Y647177D02*
X627112Y647177D01*
X623751Y648569D01*
X621178Y651142D01*
X619786Y654503D01*
X619786Y658141D01*
X621178Y661502D01*
X623751Y664075D01*
X627112Y665467D01*
X630750Y665467D01*
X634111Y664075D01*
X636683Y661502D01*
X638075Y658141D01*
X638075Y654503D01*
X636683Y651142D01*
X634111Y648569D01*
X630750Y647177D01*
X627112Y647177D01*
G37*
%LPD*%
%LPC*%
G36*
X563067Y290555D02*
X563067Y290555D01*
X559706Y291947D01*
X557134Y294520D01*
X555742Y297881D01*
X555742Y301519D01*
X557134Y304880D01*
X559706Y307453D01*
X563067Y308845D01*
X566705Y308845D01*
X570066Y307453D01*
X572639Y304880D01*
X574031Y301519D01*
X574031Y297881D01*
X572639Y294520D01*
X570066Y291947D01*
X566705Y290555D01*
X563067Y290555D01*
G37*
%LPD*%
%LPC*%
G36*
X588467Y290555D02*
X588467Y290555D01*
X585106Y291947D01*
X582534Y294520D01*
X581142Y297881D01*
X581142Y301519D01*
X582534Y304880D01*
X585106Y307453D01*
X588467Y308845D01*
X592105Y308845D01*
X595466Y307453D01*
X598039Y304880D01*
X599431Y301519D01*
X599431Y297881D01*
X598039Y294520D01*
X595466Y291947D01*
X592105Y290555D01*
X588467Y290555D01*
G37*
%LPD*%
%LPC*%
G36*
X613867Y290555D02*
X613867Y290555D01*
X610506Y291947D01*
X607934Y294520D01*
X606542Y297881D01*
X606542Y301519D01*
X607934Y304880D01*
X610506Y307453D01*
X613867Y308845D01*
X617505Y308845D01*
X620866Y307453D01*
X623439Y304880D01*
X624831Y301519D01*
X624831Y297881D01*
X623439Y294520D01*
X620866Y291947D01*
X617505Y290555D01*
X613867Y290555D01*
G37*
%LPD*%
%LPC*%
G36*
X639267Y290555D02*
X639267Y290555D01*
X635906Y291947D01*
X633334Y294520D01*
X631942Y297881D01*
X631942Y301519D01*
X633334Y304880D01*
X635906Y307453D01*
X639267Y308845D01*
X642905Y308845D01*
X646266Y307453D01*
X648839Y304880D01*
X650231Y301519D01*
X650231Y297881D01*
X648839Y294520D01*
X646266Y291947D01*
X642905Y290555D01*
X639267Y290555D01*
G37*
%LPD*%
%LPC*%
G36*
X31081Y296255D02*
X31081Y296255D01*
X27720Y297647D01*
X25147Y300220D01*
X23755Y303581D01*
X23755Y307219D01*
X25147Y310580D01*
X27720Y313153D01*
X31081Y314545D01*
X34719Y314545D01*
X38080Y313153D01*
X40653Y310580D01*
X42045Y307219D01*
X42045Y303581D01*
X40653Y300220D01*
X38080Y297647D01*
X34719Y296255D01*
X31081Y296255D01*
G37*
%LPD*%
%LPC*%
G36*
X56481Y296255D02*
X56481Y296255D01*
X53120Y297647D01*
X50547Y300220D01*
X49155Y303581D01*
X49155Y307219D01*
X50547Y310580D01*
X53120Y313153D01*
X56481Y314545D01*
X60119Y314545D01*
X63480Y313153D01*
X66053Y310580D01*
X67445Y307219D01*
X67445Y303581D01*
X66053Y300220D01*
X63480Y297647D01*
X60119Y296255D01*
X56481Y296255D01*
G37*
%LPD*%
%LPC*%
G36*
X81881Y296255D02*
X81881Y296255D01*
X78520Y297647D01*
X75947Y300220D01*
X74555Y303581D01*
X74555Y307219D01*
X75947Y310580D01*
X78520Y313153D01*
X81881Y314545D01*
X85519Y314545D01*
X88880Y313153D01*
X91453Y310580D01*
X92845Y307219D01*
X92845Y303581D01*
X91453Y300220D01*
X88880Y297647D01*
X85519Y296255D01*
X81881Y296255D01*
G37*
%LPD*%
%LPC*%
G36*
X107281Y296255D02*
X107281Y296255D01*
X103920Y297647D01*
X101347Y300220D01*
X99955Y303581D01*
X99955Y307219D01*
X101347Y310580D01*
X103920Y313153D01*
X107281Y314545D01*
X110919Y314545D01*
X114280Y313153D01*
X116853Y310580D01*
X118245Y307219D01*
X118245Y303581D01*
X116853Y300220D01*
X114280Y297647D01*
X110919Y296255D01*
X107281Y296255D01*
G37*
%LPD*%
%LPC*%
G36*
X132681Y296255D02*
X132681Y296255D01*
X129320Y297647D01*
X126747Y300220D01*
X125355Y303581D01*
X125355Y307219D01*
X126747Y310580D01*
X129320Y313153D01*
X132681Y314545D01*
X136319Y314545D01*
X139680Y313153D01*
X142253Y310580D01*
X143645Y307219D01*
X143645Y303581D01*
X142253Y300220D01*
X139680Y297647D01*
X136319Y296255D01*
X132681Y296255D01*
G37*
%LPD*%
%LPC*%
G36*
X158081Y296255D02*
X158081Y296255D01*
X154720Y297647D01*
X152147Y300220D01*
X150755Y303581D01*
X150755Y307219D01*
X152147Y310580D01*
X154720Y313153D01*
X158081Y314545D01*
X161719Y314545D01*
X165080Y313153D01*
X167653Y310580D01*
X169045Y307219D01*
X169045Y303581D01*
X167653Y300220D01*
X165080Y297647D01*
X161719Y296255D01*
X158081Y296255D01*
G37*
%LPD*%
%LPC*%
G36*
X579009Y513884D02*
X579009Y513884D01*
X575648Y515276D01*
X573076Y517849D01*
X571683Y521210D01*
X571683Y524848D01*
X573076Y528209D01*
X575648Y530781D01*
X579009Y532174D01*
X582647Y532174D01*
X586008Y530781D01*
X588581Y528209D01*
X589973Y524848D01*
X589973Y521210D01*
X588581Y517849D01*
X586008Y515276D01*
X582647Y513884D01*
X579009Y513884D01*
G37*
%LPD*%
%LPC*%
G36*
X662221Y646541D02*
X662221Y646541D01*
X658860Y647933D01*
X656287Y650506D01*
X654895Y653867D01*
X654895Y657505D01*
X656287Y660866D01*
X658860Y663438D01*
X662221Y664831D01*
X665859Y664831D01*
X669220Y663438D01*
X671793Y660866D01*
X673185Y657505D01*
X673185Y653867D01*
X671793Y650506D01*
X669220Y647933D01*
X665859Y646541D01*
X662221Y646541D01*
G37*
%LPD*%
%LPC*%
G36*
X183481Y296255D02*
X183481Y296255D01*
X180120Y297647D01*
X177547Y300220D01*
X176155Y303581D01*
X176155Y307219D01*
X177547Y310580D01*
X180120Y313153D01*
X183481Y314545D01*
X187119Y314545D01*
X190480Y313153D01*
X193053Y310580D01*
X194445Y307219D01*
X194445Y303581D01*
X193053Y300220D01*
X190480Y297647D01*
X187119Y296255D01*
X183481Y296255D01*
G37*
%LPD*%
%LPC*%
G36*
X208881Y296255D02*
X208881Y296255D01*
X205520Y297647D01*
X202947Y300220D01*
X201555Y303581D01*
X201555Y307219D01*
X202947Y310580D01*
X205520Y313153D01*
X208881Y314545D01*
X212519Y314545D01*
X215880Y313153D01*
X218453Y310580D01*
X219845Y307219D01*
X219845Y303581D01*
X218453Y300220D01*
X215880Y297647D01*
X212519Y296255D01*
X208881Y296255D01*
G37*
%LPD*%
%LPC*%
G36*
X227718Y369002D02*
X227718Y369002D01*
X224357Y370394D01*
X221785Y372967D01*
X220393Y376328D01*
X220393Y379966D01*
X221785Y383327D01*
X224357Y385900D01*
X227718Y387292D01*
X231356Y387292D01*
X234717Y385900D01*
X237290Y383327D01*
X238682Y379966D01*
X238682Y376328D01*
X237290Y372967D01*
X234717Y370394D01*
X231356Y369002D01*
X227718Y369002D01*
G37*
%LPD*%
%LPC*%
G36*
X198496Y363628D02*
X198496Y363628D01*
X195135Y365020D01*
X192562Y367593D01*
X191170Y370954D01*
X191170Y374592D01*
X192562Y377953D01*
X195135Y380526D01*
X198496Y381918D01*
X202134Y381918D01*
X205495Y380526D01*
X208067Y377953D01*
X209459Y374592D01*
X209459Y370954D01*
X208067Y367593D01*
X205495Y365020D01*
X202134Y363628D01*
X198496Y363628D01*
G37*
%LPD*%
%LPC*%
G36*
X114894Y364769D02*
X114894Y364769D01*
X111533Y366161D01*
X108960Y368733D01*
X107568Y372094D01*
X107568Y375732D01*
X108960Y379093D01*
X111533Y381666D01*
X114894Y383058D01*
X118532Y383058D01*
X121893Y381666D01*
X124466Y379093D01*
X125858Y375732D01*
X125858Y372094D01*
X124466Y368733D01*
X121893Y366161D01*
X118532Y364769D01*
X114894Y364769D01*
G37*
%LPD*%
%LPC*%
G36*
X87081Y366355D02*
X87081Y366355D01*
X83720Y367747D01*
X81147Y370320D01*
X79755Y373681D01*
X79755Y377319D01*
X81147Y380680D01*
X83720Y383253D01*
X87081Y384645D01*
X90719Y384645D01*
X94080Y383253D01*
X96653Y380680D01*
X98045Y377319D01*
X98045Y373681D01*
X96653Y370320D01*
X94080Y367747D01*
X90719Y366355D01*
X87081Y366355D01*
G37*
%LPD*%
%LPC*%
G36*
X246162Y935641D02*
X246162Y935641D01*
X242832Y937020D01*
X240283Y939569D01*
X238904Y942899D01*
X238904Y946504D01*
X240283Y949834D01*
X242832Y952383D01*
X246162Y953762D01*
X249767Y953762D01*
X253097Y952383D01*
X255646Y949834D01*
X257025Y946504D01*
X257025Y942899D01*
X255646Y939569D01*
X253097Y937020D01*
X249767Y935641D01*
X246162Y935641D01*
G37*
%LPD*%
%LPC*%
G36*
X294662Y935641D02*
X294662Y935641D01*
X291332Y937020D01*
X288783Y939569D01*
X287404Y942899D01*
X287404Y946504D01*
X288783Y949834D01*
X291332Y952383D01*
X294662Y953762D01*
X298267Y953762D01*
X301597Y952383D01*
X304146Y949834D01*
X305525Y946504D01*
X305525Y942899D01*
X304146Y939569D01*
X301597Y937020D01*
X298267Y935641D01*
X294662Y935641D01*
G37*
%LPD*%
%LPC*%
G36*
X463156Y454687D02*
X463156Y454687D01*
X460832Y455650D01*
X459053Y457428D01*
X458091Y459752D01*
X458091Y462268D01*
X459058Y464603D01*
X459078Y464628D01*
X459128Y464677D01*
X459175Y464754D01*
X459230Y464825D01*
X459258Y464889D01*
X459294Y464948D01*
X459321Y465034D01*
X459356Y465116D01*
X459367Y465185D01*
X459388Y465252D01*
X459392Y465342D01*
X459406Y465431D01*
X459400Y465500D01*
X459403Y465570D01*
X459385Y465658D01*
X459377Y465747D01*
X459353Y465813D01*
X459339Y465881D01*
X459299Y465962D01*
X459269Y466046D01*
X459230Y466104D01*
X459199Y466167D01*
X459141Y466235D01*
X459090Y466310D01*
X459038Y466356D01*
X458993Y466409D01*
X458919Y466461D01*
X458852Y466520D01*
X458790Y466552D01*
X458733Y466592D01*
X458649Y466624D01*
X458569Y466665D01*
X458501Y466680D01*
X458435Y466705D01*
X458346Y466715D01*
X458258Y466734D01*
X458189Y466732D01*
X458119Y466740D01*
X458030Y466727D01*
X457940Y466725D01*
X457873Y466705D01*
X457804Y466695D01*
X457652Y466643D01*
X456934Y466346D01*
X454418Y466346D01*
X452094Y467308D01*
X450316Y469087D01*
X449353Y471411D01*
X449353Y473926D01*
X450316Y476250D01*
X452094Y478029D01*
X454418Y478991D01*
X456934Y478991D01*
X459258Y478029D01*
X461036Y476250D01*
X461999Y473926D01*
X461999Y471411D01*
X461031Y469076D01*
X461012Y469050D01*
X460961Y469002D01*
X460915Y468925D01*
X460859Y468854D01*
X460832Y468790D01*
X460795Y468730D01*
X460769Y468645D01*
X460733Y468562D01*
X460722Y468493D01*
X460702Y468427D01*
X460697Y468337D01*
X460683Y468248D01*
X460690Y468178D01*
X460687Y468109D01*
X460705Y468021D01*
X460713Y467931D01*
X460737Y467866D01*
X460751Y467797D01*
X460790Y467717D01*
X460821Y467632D01*
X460860Y467574D01*
X460891Y467512D01*
X460949Y467443D01*
X460999Y467369D01*
X461052Y467323D01*
X461097Y467270D01*
X461170Y467218D01*
X461238Y467159D01*
X461300Y467127D01*
X461357Y467087D01*
X461441Y467055D01*
X461521Y467014D01*
X461589Y466999D01*
X461654Y466974D01*
X461744Y466964D01*
X461831Y466944D01*
X461901Y466946D01*
X461970Y466939D01*
X462059Y466951D01*
X462149Y466954D01*
X462216Y466973D01*
X462285Y466983D01*
X462438Y467035D01*
X463156Y467333D01*
X465671Y467333D01*
X467995Y466370D01*
X469774Y464592D01*
X470736Y462268D01*
X470736Y459752D01*
X469774Y457428D01*
X467995Y455650D01*
X465671Y454687D01*
X463156Y454687D01*
G37*
%LPD*%
%LPC*%
G36*
X688985Y887615D02*
X688985Y887615D01*
X686422Y888677D01*
X684461Y890638D01*
X683399Y893201D01*
X683399Y895975D01*
X684461Y898538D01*
X686422Y900499D01*
X688985Y901561D01*
X691759Y901561D01*
X694322Y900499D01*
X696283Y898538D01*
X697345Y895975D01*
X697345Y893201D01*
X696283Y890638D01*
X694322Y888677D01*
X691759Y887615D01*
X688985Y887615D01*
G37*
%LPD*%
%LPC*%
G36*
X579998Y587029D02*
X579998Y587029D01*
X577490Y588068D01*
X575571Y589987D01*
X574532Y592495D01*
X574532Y595209D01*
X575571Y597717D01*
X577490Y599636D01*
X579998Y600675D01*
X582712Y600675D01*
X585220Y599636D01*
X587139Y597717D01*
X588178Y595209D01*
X588178Y592495D01*
X587139Y589987D01*
X585220Y588068D01*
X582712Y587029D01*
X579998Y587029D01*
G37*
%LPD*%
%LPC*%
G36*
X121680Y833612D02*
X121680Y833612D01*
X119173Y834651D01*
X117254Y836570D01*
X116215Y839078D01*
X116215Y841792D01*
X117254Y844300D01*
X119173Y846219D01*
X121680Y847258D01*
X124395Y847258D01*
X126902Y846219D01*
X128822Y844300D01*
X129860Y841792D01*
X129860Y839078D01*
X128822Y836570D01*
X126902Y834651D01*
X124395Y833612D01*
X121680Y833612D01*
G37*
%LPD*%
%LPC*%
G36*
X617234Y517814D02*
X617234Y517814D01*
X614727Y518853D01*
X612808Y520772D01*
X611769Y523280D01*
X611769Y525994D01*
X612808Y528502D01*
X614727Y530421D01*
X617234Y531460D01*
X619949Y531460D01*
X622456Y530421D01*
X624376Y528502D01*
X625414Y525994D01*
X625414Y523280D01*
X624376Y520772D01*
X622456Y518853D01*
X619949Y517814D01*
X617234Y517814D01*
G37*
%LPD*%
%LPC*%
G36*
X218353Y922766D02*
X218353Y922766D01*
X215845Y923805D01*
X213926Y925724D01*
X212887Y928232D01*
X212887Y930946D01*
X213926Y933454D01*
X215845Y935373D01*
X218353Y936412D01*
X221067Y936412D01*
X223575Y935373D01*
X225494Y933454D01*
X226533Y930946D01*
X226533Y928232D01*
X225494Y925724D01*
X223575Y923805D01*
X221067Y922766D01*
X218353Y922766D01*
G37*
%LPD*%
%LPC*%
G36*
X494502Y889365D02*
X494502Y889365D01*
X491994Y890404D01*
X490075Y892323D01*
X489036Y894831D01*
X489036Y897545D01*
X490075Y900053D01*
X491994Y901972D01*
X494502Y903011D01*
X497216Y903011D01*
X499724Y901972D01*
X501643Y900053D01*
X502682Y897545D01*
X502682Y894831D01*
X501643Y892323D01*
X499724Y890404D01*
X497216Y889365D01*
X494502Y889365D01*
G37*
%LPD*%
%LPC*%
G36*
X166029Y503057D02*
X166029Y503057D01*
X163521Y504096D01*
X161602Y506015D01*
X160563Y508522D01*
X160563Y511237D01*
X161602Y513744D01*
X163521Y515664D01*
X166029Y516702D01*
X168743Y516702D01*
X171251Y515664D01*
X173170Y513744D01*
X174209Y511237D01*
X174209Y508522D01*
X173170Y506015D01*
X171251Y504096D01*
X168743Y503057D01*
X166029Y503057D01*
G37*
%LPD*%
%LPC*%
G36*
X150662Y925484D02*
X150662Y925484D01*
X148154Y926523D01*
X146235Y928442D01*
X145196Y930950D01*
X145196Y933664D01*
X146235Y936172D01*
X148154Y938091D01*
X150662Y939130D01*
X153376Y939130D01*
X155884Y938091D01*
X157803Y936172D01*
X158842Y933664D01*
X158842Y930950D01*
X157803Y928442D01*
X155884Y926523D01*
X153376Y925484D01*
X150662Y925484D01*
G37*
%LPD*%
%LPC*%
G36*
X58511Y489493D02*
X58511Y489493D01*
X56003Y490532D01*
X54084Y492451D01*
X53045Y494959D01*
X53045Y497673D01*
X54084Y500181D01*
X56003Y502100D01*
X58511Y503139D01*
X61225Y503139D01*
X63733Y502100D01*
X65652Y500181D01*
X66691Y497673D01*
X66691Y494959D01*
X65652Y492451D01*
X63733Y490532D01*
X61225Y489493D01*
X58511Y489493D01*
G37*
%LPD*%
%LPC*%
G36*
X336996Y775751D02*
X336996Y775751D01*
X334489Y776790D01*
X332569Y778709D01*
X331531Y781217D01*
X331531Y783931D01*
X332569Y786439D01*
X334489Y788358D01*
X336996Y789397D01*
X339711Y789397D01*
X342218Y788358D01*
X344137Y786439D01*
X345176Y783931D01*
X345176Y781217D01*
X344137Y778709D01*
X342218Y776790D01*
X339711Y775751D01*
X336996Y775751D01*
G37*
%LPD*%
%LPC*%
G36*
X292826Y562874D02*
X292826Y562874D01*
X290318Y563913D01*
X288399Y565832D01*
X287360Y568339D01*
X287360Y571054D01*
X288399Y573561D01*
X290318Y575481D01*
X292826Y576519D01*
X295540Y576519D01*
X298048Y575481D01*
X299967Y573561D01*
X301006Y571054D01*
X301006Y568339D01*
X299967Y565832D01*
X298048Y563913D01*
X295540Y562874D01*
X292826Y562874D01*
G37*
%LPD*%
%LPC*%
G36*
X34965Y702752D02*
X34965Y702752D01*
X32457Y703790D01*
X30538Y705710D01*
X29499Y708217D01*
X29499Y710932D01*
X30538Y713439D01*
X32457Y715358D01*
X34965Y716397D01*
X37679Y716397D01*
X40187Y715358D01*
X42106Y713439D01*
X43145Y710932D01*
X43145Y708217D01*
X42106Y705710D01*
X40187Y703790D01*
X37679Y702752D01*
X34965Y702752D01*
G37*
%LPD*%
%LPC*%
G36*
X579922Y323777D02*
X579922Y323777D01*
X577414Y324816D01*
X575495Y326735D01*
X574456Y329243D01*
X574456Y331957D01*
X575495Y334465D01*
X577414Y336384D01*
X579922Y337423D01*
X582636Y337423D01*
X585144Y336384D01*
X587063Y334465D01*
X588102Y331957D01*
X588102Y329243D01*
X587063Y326735D01*
X585144Y324816D01*
X582636Y323777D01*
X579922Y323777D01*
G37*
%LPD*%
%LPC*%
G36*
X57469Y327314D02*
X57469Y327314D01*
X54962Y328353D01*
X53042Y330272D01*
X52004Y332780D01*
X52004Y335494D01*
X53042Y338002D01*
X54962Y339921D01*
X57469Y340960D01*
X60184Y340960D01*
X62691Y339921D01*
X64610Y338002D01*
X65649Y335494D01*
X65649Y332780D01*
X64610Y330272D01*
X62691Y328353D01*
X60184Y327314D01*
X57469Y327314D01*
G37*
%LPD*%
%LPC*%
G36*
X83631Y974176D02*
X83631Y974176D01*
X81124Y975215D01*
X79204Y977134D01*
X78166Y979642D01*
X78166Y982356D01*
X79204Y984864D01*
X81124Y986783D01*
X83631Y987822D01*
X86346Y987822D01*
X88853Y986783D01*
X90772Y984864D01*
X91811Y982356D01*
X91811Y979642D01*
X90772Y977134D01*
X88853Y975215D01*
X86346Y974176D01*
X83631Y974176D01*
G37*
%LPD*%
%LPC*%
G36*
X308149Y367151D02*
X308149Y367151D01*
X305641Y368190D01*
X303722Y370109D01*
X302683Y372616D01*
X302683Y375331D01*
X303722Y377838D01*
X305641Y379758D01*
X308149Y380796D01*
X310863Y380796D01*
X313371Y379758D01*
X315290Y377838D01*
X316329Y375331D01*
X316329Y372616D01*
X315290Y370109D01*
X313371Y368190D01*
X310863Y367151D01*
X308149Y367151D01*
G37*
%LPD*%
%LPC*%
G36*
X442240Y373907D02*
X442240Y373907D01*
X439733Y374946D01*
X437813Y376865D01*
X436775Y379373D01*
X436775Y382087D01*
X437813Y384595D01*
X439733Y386514D01*
X442240Y387553D01*
X444955Y387553D01*
X447462Y386514D01*
X449381Y384595D01*
X450420Y382087D01*
X450420Y379373D01*
X449381Y376865D01*
X447462Y374946D01*
X444955Y373907D01*
X442240Y373907D01*
G37*
%LPD*%
%LPC*%
G36*
X57799Y387512D02*
X57799Y387512D01*
X55292Y388551D01*
X53373Y390470D01*
X52334Y392978D01*
X52334Y395692D01*
X53373Y398200D01*
X55292Y400119D01*
X57799Y401158D01*
X60514Y401158D01*
X63021Y400119D01*
X64941Y398200D01*
X65979Y395692D01*
X65979Y392978D01*
X64941Y390470D01*
X63021Y388551D01*
X60514Y387512D01*
X57799Y387512D01*
G37*
%LPD*%
%LPC*%
G36*
X772477Y559284D02*
X772477Y559284D01*
X770153Y560247D01*
X768375Y562026D01*
X767412Y564349D01*
X767412Y566865D01*
X768375Y569189D01*
X770153Y570967D01*
X772477Y571930D01*
X774993Y571930D01*
X777316Y570967D01*
X779095Y569189D01*
X780058Y566865D01*
X780058Y564349D01*
X779095Y562026D01*
X777316Y560247D01*
X774993Y559284D01*
X772477Y559284D01*
G37*
%LPD*%
%LPC*%
G36*
X439915Y564441D02*
X439915Y564441D01*
X437591Y565403D01*
X435812Y567182D01*
X434850Y569506D01*
X434850Y572021D01*
X435812Y574345D01*
X437591Y576124D01*
X439915Y577086D01*
X442430Y577086D01*
X444754Y576124D01*
X446533Y574345D01*
X447495Y572021D01*
X447495Y569506D01*
X446533Y567182D01*
X444754Y565403D01*
X442430Y564441D01*
X439915Y564441D01*
G37*
%LPD*%
%LPC*%
G36*
X469044Y580923D02*
X469044Y580923D01*
X466720Y581885D01*
X464942Y583664D01*
X463979Y585988D01*
X463979Y588503D01*
X464942Y590827D01*
X466720Y592606D01*
X469044Y593568D01*
X471560Y593568D01*
X473884Y592606D01*
X475662Y590827D01*
X476625Y588503D01*
X476625Y585988D01*
X475662Y583664D01*
X473884Y581885D01*
X471560Y580923D01*
X469044Y580923D01*
G37*
%LPD*%
%LPC*%
G36*
X461016Y564305D02*
X461016Y564305D01*
X458692Y565267D01*
X456914Y567046D01*
X455951Y569370D01*
X455951Y571885D01*
X456914Y574209D01*
X458692Y575988D01*
X461016Y576950D01*
X463532Y576950D01*
X465856Y575988D01*
X467634Y574209D01*
X468597Y571885D01*
X468597Y569370D01*
X467634Y567046D01*
X465856Y565267D01*
X463532Y564305D01*
X461016Y564305D01*
G37*
%LPD*%
%LPC*%
G36*
X98742Y833677D02*
X98742Y833677D01*
X96418Y834640D01*
X94640Y836418D01*
X93677Y838742D01*
X93677Y841258D01*
X94640Y843582D01*
X96418Y845360D01*
X98742Y846323D01*
X101258Y846323D01*
X103582Y845360D01*
X105360Y843582D01*
X106323Y841258D01*
X106323Y838742D01*
X105360Y836418D01*
X103582Y834640D01*
X101258Y833677D01*
X98742Y833677D01*
G37*
%LPD*%
%LPC*%
G36*
X521466Y516612D02*
X521466Y516612D01*
X519142Y517575D01*
X517364Y519354D01*
X516401Y521677D01*
X516401Y524193D01*
X517364Y526517D01*
X519142Y528295D01*
X521466Y529258D01*
X523982Y529258D01*
X526306Y528295D01*
X528084Y526517D01*
X529047Y524193D01*
X529047Y521677D01*
X528084Y519354D01*
X526306Y517575D01*
X523982Y516612D01*
X521466Y516612D01*
G37*
%LPD*%
%LPC*%
G36*
X665362Y493181D02*
X665362Y493181D01*
X663039Y494144D01*
X661260Y495923D01*
X660297Y498246D01*
X660297Y500762D01*
X661260Y503086D01*
X663039Y504864D01*
X665362Y505827D01*
X667878Y505827D01*
X670202Y504864D01*
X671980Y503086D01*
X672943Y500762D01*
X672943Y498246D01*
X671980Y495923D01*
X670202Y494144D01*
X667878Y493181D01*
X665362Y493181D01*
G37*
%LPD*%
%LPC*%
G36*
X339920Y365593D02*
X339920Y365593D01*
X337596Y366556D01*
X335817Y368335D01*
X334854Y370658D01*
X334854Y373174D01*
X335817Y375498D01*
X337596Y377276D01*
X339920Y378239D01*
X342435Y378239D01*
X344759Y377276D01*
X346537Y375498D01*
X347500Y373174D01*
X347500Y370658D01*
X346537Y368335D01*
X344759Y366556D01*
X342435Y365593D01*
X339920Y365593D01*
G37*
%LPD*%
%LPC*%
G36*
X703490Y487931D02*
X703490Y487931D01*
X701167Y488894D01*
X699388Y490672D01*
X698425Y492996D01*
X698425Y495512D01*
X699388Y497835D01*
X701167Y499614D01*
X703490Y500577D01*
X706006Y500577D01*
X708330Y499614D01*
X710108Y497835D01*
X711071Y495512D01*
X711071Y492996D01*
X710108Y490672D01*
X708330Y488894D01*
X706006Y487931D01*
X703490Y487931D01*
G37*
%LPD*%
%LPC*%
G36*
X627548Y743794D02*
X627548Y743794D01*
X625225Y744756D01*
X623446Y746535D01*
X622483Y748859D01*
X622483Y751374D01*
X623446Y753698D01*
X625225Y755477D01*
X627548Y756439D01*
X630064Y756439D01*
X632388Y755477D01*
X634166Y753698D01*
X635129Y751374D01*
X635129Y748859D01*
X634166Y746535D01*
X632388Y744756D01*
X630064Y743794D01*
X627548Y743794D01*
G37*
%LPD*%
%LPC*%
G36*
X701027Y728423D02*
X701027Y728423D01*
X698703Y729386D01*
X696924Y731164D01*
X695962Y733488D01*
X695962Y736004D01*
X696924Y738327D01*
X698703Y740106D01*
X701027Y741069D01*
X703542Y741069D01*
X705866Y740106D01*
X707645Y738327D01*
X708607Y736004D01*
X708607Y733488D01*
X707645Y731164D01*
X705866Y729386D01*
X703542Y728423D01*
X701027Y728423D01*
G37*
%LPD*%
%LPC*%
G36*
X239851Y712568D02*
X239851Y712568D01*
X237527Y713531D01*
X235749Y715310D01*
X234786Y717634D01*
X234786Y720149D01*
X235749Y722473D01*
X237527Y724251D01*
X239851Y725214D01*
X242366Y725214D01*
X244690Y724251D01*
X246469Y722473D01*
X247432Y720149D01*
X247432Y717634D01*
X246469Y715310D01*
X244690Y713531D01*
X242366Y712568D01*
X239851Y712568D01*
G37*
%LPD*%
%LPC*%
G36*
X440245Y505538D02*
X440245Y505538D01*
X437921Y506501D01*
X436143Y508279D01*
X435180Y510603D01*
X435180Y513119D01*
X436143Y515442D01*
X437921Y517221D01*
X440245Y518184D01*
X442761Y518184D01*
X445084Y517221D01*
X446863Y515442D01*
X447826Y513119D01*
X447826Y510603D01*
X446863Y508279D01*
X445084Y506501D01*
X442761Y505538D01*
X440245Y505538D01*
G37*
%LPD*%
%LPC*%
G36*
X693906Y653106D02*
X693906Y653106D01*
X691582Y654068D01*
X689803Y655847D01*
X688841Y658171D01*
X688841Y660686D01*
X689803Y663010D01*
X691582Y664789D01*
X693906Y665751D01*
X696421Y665751D01*
X698745Y664789D01*
X700524Y663010D01*
X701486Y660686D01*
X701486Y658171D01*
X700524Y655847D01*
X698745Y654068D01*
X696421Y653106D01*
X693906Y653106D01*
G37*
%LPD*%
%LPC*%
G36*
X490054Y420956D02*
X490054Y420956D01*
X487731Y421919D01*
X485952Y423697D01*
X484989Y426021D01*
X484989Y428537D01*
X485952Y430860D01*
X487731Y432639D01*
X490054Y433602D01*
X492570Y433602D01*
X494894Y432639D01*
X496672Y430860D01*
X497635Y428537D01*
X497635Y426021D01*
X496672Y423697D01*
X494894Y421919D01*
X492570Y420956D01*
X490054Y420956D01*
G37*
%LPD*%
%LPC*%
G36*
X747665Y413814D02*
X747665Y413814D01*
X747665Y423474D01*
X748040Y423415D01*
X749904Y422809D01*
X751649Y421920D01*
X753234Y420769D01*
X754620Y419383D01*
X755771Y417798D01*
X756660Y416052D01*
X757266Y414189D01*
X757325Y413814D01*
X747665Y413814D01*
G37*
%LPD*%
%LPC*%
G36*
X732926Y413814D02*
X732926Y413814D01*
X732985Y414189D01*
X733591Y416052D01*
X734480Y417798D01*
X735632Y419383D01*
X737017Y420769D01*
X738602Y421920D01*
X740348Y422809D01*
X742211Y423415D01*
X742586Y423474D01*
X742586Y413814D01*
X732926Y413814D01*
G37*
%LPD*%
%LPC*%
G36*
X747665Y408735D02*
X747665Y408735D01*
X757325Y408735D01*
X757266Y408360D01*
X756660Y406497D01*
X755771Y404751D01*
X754620Y403166D01*
X753234Y401781D01*
X751649Y400629D01*
X749904Y399740D01*
X748040Y399134D01*
X747665Y399075D01*
X747665Y408735D01*
G37*
%LPD*%
%LPC*%
G36*
X742211Y399134D02*
X742211Y399134D01*
X740348Y399740D01*
X738602Y400629D01*
X737017Y401781D01*
X735632Y403166D01*
X734480Y404751D01*
X733591Y406497D01*
X732985Y408360D01*
X732926Y408735D01*
X742586Y408735D01*
X742586Y399075D01*
X742211Y399134D01*
G37*
%LPD*%
%LPC*%
G36*
X40931Y623931D02*
X40931Y623931D01*
X40931Y630837D01*
X41041Y630820D01*
X42410Y630375D01*
X43693Y629721D01*
X44857Y628875D01*
X45875Y627857D01*
X46721Y626693D01*
X47375Y625410D01*
X47820Y624041D01*
X47837Y623931D01*
X40931Y623931D01*
G37*
%LPD*%
%LPC*%
G36*
X40931Y619869D02*
X40931Y619869D01*
X47837Y619869D01*
X47820Y619759D01*
X47375Y618390D01*
X46721Y617107D01*
X45875Y615943D01*
X44857Y614925D01*
X43693Y614079D01*
X42410Y613425D01*
X41041Y612980D01*
X40931Y612963D01*
X40931Y619869D01*
G37*
%LPD*%
%LPC*%
G36*
X29963Y623931D02*
X29963Y623931D01*
X29980Y624041D01*
X30425Y625410D01*
X31079Y626693D01*
X31925Y627857D01*
X32943Y628875D01*
X34107Y629721D01*
X35390Y630375D01*
X36759Y630820D01*
X36869Y630837D01*
X36869Y623931D01*
X29963Y623931D01*
G37*
%LPD*%
%LPC*%
G36*
X36759Y612980D02*
X36759Y612980D01*
X35390Y613425D01*
X34107Y614079D01*
X32943Y614925D01*
X31925Y615943D01*
X31079Y617107D01*
X30425Y618390D01*
X29980Y619759D01*
X29963Y619869D01*
X36869Y619869D01*
X36869Y612963D01*
X36759Y612980D01*
G37*
%LPD*%
%LPC*%
G36*
X745125Y411274D02*
X745125Y411274D01*
X745125Y411275D01*
X745127Y411275D01*
X745127Y411274D01*
X745125Y411274D01*
G37*
%LPD*%
D10*
X745126Y411275D03*
X744782Y366978D03*
D11*
X641086Y299700D03*
X615686Y299700D03*
X590286Y299700D03*
X564886Y299700D03*
X539486Y299700D03*
D12*
X309465Y975001D03*
X234965Y975001D03*
D13*
X401577Y571650D03*
X401577Y582650D03*
D11*
X32900Y305400D03*
X58300Y305400D03*
X83700Y305400D03*
X109100Y305400D03*
X134500Y305400D03*
X159900Y305400D03*
X185300Y305400D03*
X210700Y305400D03*
D10*
X53852Y730956D03*
X53852Y756356D03*
X53852Y781756D03*
X53852Y807156D03*
X53852Y832556D03*
D11*
X38900Y621900D03*
X580828Y523029D03*
X229537Y378147D03*
X88900Y375500D03*
X200315Y372773D03*
X116713Y373913D03*
X664040Y655686D03*
X628931Y656322D03*
D14*
X470302Y587246D03*
X441503Y511861D03*
X462274Y570628D03*
X441173Y570763D03*
X287376Y373939D03*
X485115Y380162D03*
D15*
X138862Y672668D03*
D14*
X173812Y800049D03*
X176301Y667799D03*
X338561Y806286D03*
X427634Y858749D03*
X497738Y853516D03*
X601447Y836041D03*
X618896Y728853D03*
X495351Y585673D03*
X339471Y756056D03*
X437011Y595349D03*
X546303Y586892D03*
X624611Y614680D03*
X455676Y472669D03*
X628806Y750116D03*
X464414Y461010D03*
X642723Y739091D03*
X704748Y494254D03*
X639445Y699999D03*
X666620Y499504D03*
X635893Y690693D03*
X390000Y890000D03*
X481101Y886358D03*
X558013Y903300D03*
X677266Y883310D03*
X677088Y844931D03*
X692551Y714465D03*
X522724Y522935D03*
X695164Y659428D03*
X341177Y371916D03*
X773735Y565607D03*
X181864Y784200D03*
X241109Y718891D03*
D16*
X84988Y980999D03*
X152019Y932307D03*
X219710Y929589D03*
X194513Y783057D03*
X338353Y782574D03*
X123038Y840435D03*
X167386Y509880D03*
X59868Y496316D03*
X59157Y394335D03*
X58826Y334137D03*
X309506Y373974D03*
X443597Y380730D03*
D17*
X700481Y356870D03*
D16*
X581279Y330600D03*
X294183Y569697D03*
X36322Y709574D03*
X495859Y896188D03*
D18*
X690372Y894588D03*
D14*
X702285Y734746D03*
D16*
X618592Y524637D03*
X581355Y593852D03*
D14*
X491312Y427279D03*
X100000Y840000D03*
M02*
