G04 EAGLE Gerber RS-274X export*
G75*
%MOMM*%
%FSLAX34Y34*%
%LPD*%
%INTop Copper*%
%IPPOS*%
%AMOC8*
5,1,8,0,0,1.08239X$1,22.5*%
G01*
%ADD10P,3.436588X8X22.500000*%
%ADD11R,1.800000X3.700000*%
%ADD12R,2.200000X1.600000*%
%ADD13R,3.700000X1.800000*%
%ADD14R,2.900000X1.500000*%
%ADD15R,1.600000X2.200000*%
%ADD16R,2.300000X1.550000*%
%ADD17R,1.550000X2.300000*%
%ADD18R,0.700000X0.900000*%
%ADD19R,0.900000X0.700000*%
%ADD20R,1.475000X0.300000*%
%ADD21R,0.300000X1.475000*%
%ADD22R,0.400000X1.450000*%
%ADD23R,1.450000X0.400000*%
%ADD24R,0.600000X1.900000*%
%ADD25R,2.100000X2.800000*%
%ADD26R,1.900000X0.600000*%
%ADD27R,2.800000X2.100000*%
%ADD28R,1.803000X1.600000*%
%ADD29R,1.100000X1.800000*%
%ADD30C,1.320800*%
%ADD31R,0.400000X1.750000*%
%ADD32R,2.540000X2.540000*%
%ADD33R,0.889000X1.219200*%
%ADD34R,6.781800X6.908800*%
%ADD35R,0.558800X1.473200*%
%ADD36R,1.058000X1.058000*%
%ADD37C,1.058000*%
%ADD38R,1.600000X1.250000*%
%ADD39R,5.080000X2.540000*%
%ADD40C,1.981200*%
%ADD41P,1.732040X8X22.500000*%
%ADD42C,0.254000*%
%ADD43C,0.756400*%
%ADD44C,0.780000*%
%ADD45C,0.508000*%
%ADD46C,0.292100*%
%ADD47C,1.186400*%
%ADD48C,0.381000*%
%ADD49C,0.856400*%
%ADD50C,0.762000*%
%ADD51C,1.016000*%
%ADD52C,1.500000*%
%ADD53C,0.886400*%
%ADD54C,0.450000*%
%ADD55C,0.254000*%


D10*
X745126Y411275D03*
D11*
X485849Y348535D03*
X444849Y348535D03*
D12*
X167900Y566100D03*
X167900Y527100D03*
D13*
X111781Y858936D03*
X111781Y899936D03*
D14*
X83874Y930923D03*
X83874Y960923D03*
D15*
X604575Y357479D03*
X643575Y357479D03*
D13*
X312442Y820468D03*
X312442Y779468D03*
D12*
X276691Y820279D03*
X276691Y781279D03*
X246280Y819900D03*
X246280Y780900D03*
X214660Y820179D03*
X214660Y781179D03*
D15*
X294323Y627655D03*
X255323Y627655D03*
D13*
X276413Y719891D03*
X276413Y678891D03*
D15*
X293763Y596622D03*
X254763Y596622D03*
D16*
X612169Y432705D03*
X655169Y432705D03*
X612091Y392133D03*
X655091Y392133D03*
D17*
X195500Y605600D03*
X195500Y648600D03*
X138500Y605600D03*
X138500Y648600D03*
D18*
X699185Y393125D03*
X686185Y393125D03*
D19*
X190400Y804964D03*
X190400Y817964D03*
D18*
X279315Y569950D03*
X266315Y569950D03*
D10*
X744782Y366978D03*
D20*
X364420Y812300D03*
X364420Y807300D03*
X364420Y802300D03*
X364420Y797300D03*
X364420Y792300D03*
X364420Y787300D03*
X364420Y782300D03*
X364420Y777300D03*
X364420Y772300D03*
X364420Y767300D03*
X364420Y762300D03*
X364420Y757300D03*
X364420Y752300D03*
X364420Y747300D03*
X364420Y742300D03*
X364420Y737300D03*
X364420Y732300D03*
X364420Y727300D03*
X364420Y722300D03*
X364420Y717300D03*
X364420Y712300D03*
X364420Y707300D03*
X364420Y702300D03*
X364420Y697300D03*
X364420Y692300D03*
X364420Y687300D03*
X364420Y682300D03*
X364420Y677300D03*
X364420Y672300D03*
X364420Y667300D03*
X364420Y662300D03*
X364420Y657300D03*
X364420Y652300D03*
X364420Y647300D03*
X364420Y642300D03*
X364420Y637300D03*
D21*
X384300Y617420D03*
X389300Y617420D03*
X394300Y617420D03*
X399300Y617420D03*
X404300Y617420D03*
X409300Y617420D03*
X414300Y617420D03*
X419300Y617420D03*
X424300Y617420D03*
X429300Y617420D03*
X434300Y617420D03*
X439300Y617420D03*
X444300Y617420D03*
X449300Y617420D03*
X454300Y617420D03*
X459300Y617420D03*
X464300Y617420D03*
X469300Y617420D03*
X474300Y617420D03*
X479300Y617420D03*
X484300Y617420D03*
X489300Y617420D03*
X494300Y617420D03*
X499300Y617420D03*
X504300Y617420D03*
X509300Y617420D03*
X514300Y617420D03*
X519300Y617420D03*
X524300Y617420D03*
X529300Y617420D03*
X534300Y617420D03*
X539300Y617420D03*
X544300Y617420D03*
X549300Y617420D03*
X554300Y617420D03*
X559300Y617420D03*
D20*
X579180Y637300D03*
X579180Y642300D03*
X579180Y647300D03*
X579180Y652300D03*
X579180Y657300D03*
X579180Y662300D03*
X579180Y667300D03*
X579180Y672300D03*
X579180Y677300D03*
X579180Y682300D03*
X579180Y687300D03*
X579180Y692300D03*
X579180Y697300D03*
X579180Y702300D03*
X579180Y707300D03*
X579180Y712300D03*
X579180Y717300D03*
X579180Y722300D03*
X579180Y727300D03*
X579180Y732300D03*
X579180Y737300D03*
X579180Y742300D03*
X579180Y747300D03*
X579180Y752300D03*
X579180Y757300D03*
X579180Y762300D03*
X579180Y767300D03*
X579180Y772300D03*
X579180Y777300D03*
X579180Y782300D03*
X579180Y787300D03*
X579180Y792300D03*
X579180Y797300D03*
X579180Y802300D03*
X579180Y807300D03*
X579180Y812300D03*
D21*
X559300Y832180D03*
X554300Y832180D03*
X549300Y832180D03*
X544300Y832180D03*
X539300Y832180D03*
X534300Y832180D03*
X529300Y832180D03*
X524300Y832180D03*
X519300Y832180D03*
X514300Y832180D03*
X509300Y832180D03*
X504300Y832180D03*
X499300Y832180D03*
X494300Y832180D03*
X489300Y832180D03*
X484300Y832180D03*
X479300Y832180D03*
X474300Y832180D03*
X469300Y832180D03*
X464300Y832180D03*
X459300Y832180D03*
X454300Y832180D03*
X449300Y832180D03*
X444300Y832180D03*
X439300Y832180D03*
X434300Y832180D03*
X429300Y832180D03*
X424300Y832180D03*
X419300Y832180D03*
X414300Y832180D03*
X409300Y832180D03*
X404300Y832180D03*
X399300Y832180D03*
X394300Y832180D03*
X389300Y832180D03*
X384300Y832180D03*
D22*
X273600Y395550D03*
X281600Y395550D03*
X289600Y395550D03*
X297600Y395550D03*
X305600Y395550D03*
X313600Y395550D03*
X321600Y395550D03*
X329600Y395550D03*
D23*
X343850Y409800D03*
X343850Y417800D03*
X343850Y425800D03*
X343850Y433800D03*
X343850Y441800D03*
X343850Y449800D03*
X343850Y457800D03*
X343850Y465800D03*
D22*
X329600Y480050D03*
X321600Y480050D03*
X313600Y480050D03*
X305600Y480050D03*
X297600Y480050D03*
X289600Y480050D03*
X281600Y480050D03*
X273600Y480050D03*
D23*
X259350Y465800D03*
X259350Y457800D03*
X259350Y449800D03*
X259350Y441800D03*
X259350Y433800D03*
X259350Y425800D03*
X259350Y417800D03*
X259350Y409800D03*
D24*
X486465Y914793D03*
X476465Y914793D03*
X466465Y914793D03*
X456465Y914793D03*
X446465Y914793D03*
X436465Y914793D03*
X426465Y914793D03*
X416465Y914793D03*
X406465Y914793D03*
X396465Y914793D03*
D25*
X364965Y934293D03*
X517965Y934293D03*
D24*
X687278Y916203D03*
X677278Y916203D03*
X667278Y916203D03*
X657278Y916203D03*
X647278Y916203D03*
X637278Y916203D03*
X627278Y916203D03*
X617278Y916203D03*
X607278Y916203D03*
X597278Y916203D03*
D25*
X565778Y935703D03*
X718778Y935703D03*
D26*
X710113Y748700D03*
X710113Y758700D03*
X710113Y768700D03*
X710113Y778700D03*
X710113Y788700D03*
X710113Y798700D03*
X710113Y808700D03*
X710113Y818700D03*
X710113Y828700D03*
X710113Y838700D03*
D27*
X729613Y870200D03*
X729613Y717200D03*
D28*
X289807Y872708D03*
X289807Y901148D03*
X265400Y873280D03*
X265400Y901720D03*
X315640Y679474D03*
X315640Y707914D03*
X151651Y866573D03*
X151651Y895013D03*
X704457Y563016D03*
X704457Y534576D03*
X666923Y561414D03*
X666923Y532974D03*
D29*
X86700Y476400D03*
X86700Y414400D03*
X59700Y476400D03*
X59700Y414400D03*
D30*
X641086Y306304D02*
X641086Y293096D01*
X615686Y293096D02*
X615686Y306304D01*
X590286Y306304D02*
X590286Y293096D01*
X564886Y293096D02*
X564886Y306304D01*
X539486Y306304D02*
X539486Y293096D01*
D31*
X259215Y946751D03*
X285215Y946751D03*
X265715Y946751D03*
X272215Y946751D03*
X278715Y946751D03*
D32*
X309465Y975001D03*
X234965Y975001D03*
D33*
X518006Y348373D03*
X563706Y348373D03*
D34*
X540856Y413397D03*
D35*
X129200Y820276D03*
X119700Y820276D03*
X110200Y820276D03*
X110200Y797924D03*
X119700Y797924D03*
X129200Y797924D03*
D36*
X401577Y571650D03*
D37*
X401577Y582650D03*
D38*
X618136Y575333D03*
X581136Y575333D03*
X581136Y553333D03*
X618136Y553333D03*
D30*
X32900Y312004D02*
X32900Y298796D01*
X58300Y298796D02*
X58300Y312004D01*
X83700Y312004D02*
X83700Y298796D01*
X109100Y298796D02*
X109100Y312004D01*
X134500Y312004D02*
X134500Y298796D01*
X159900Y298796D02*
X159900Y312004D01*
X185300Y312004D02*
X185300Y298796D01*
X210700Y298796D02*
X210700Y312004D01*
D39*
X36990Y916474D03*
X36977Y873782D03*
D40*
X43946Y730956D02*
X63758Y730956D01*
X63758Y756356D02*
X43946Y756356D01*
X43946Y781756D02*
X63758Y781756D01*
X63758Y807156D02*
X43946Y807156D01*
X43946Y832556D02*
X63758Y832556D01*
D41*
X38900Y621900D03*
X580828Y523029D03*
X229537Y378147D03*
X88900Y375500D03*
X200315Y372773D03*
X116713Y373913D03*
X664040Y655686D03*
X628931Y656322D03*
D42*
X387290Y457800D02*
X343850Y457800D01*
X387290Y457800D02*
X441350Y511861D01*
D43*
X470302Y587246D03*
D42*
X470302Y594771D01*
X464300Y600773D02*
X464300Y617420D01*
X464300Y600773D02*
X470302Y594771D01*
X441503Y511861D02*
X441350Y511861D01*
D44*
X441503Y511861D03*
D42*
X449300Y536069D02*
X449300Y617420D01*
X449300Y536069D02*
X379032Y465800D01*
X343850Y465800D01*
X329600Y480050D02*
X381574Y480050D01*
X441177Y539653D02*
X441177Y560000D01*
X441177Y539653D02*
X381574Y480050D01*
D43*
X462274Y570628D03*
D42*
X459300Y573602D01*
X459300Y617420D01*
X441173Y560004D02*
X441177Y560000D01*
X441173Y560004D02*
X441173Y570763D01*
D44*
X441173Y570763D03*
D42*
X367800Y417800D02*
X343850Y417800D01*
X454300Y504300D02*
X454300Y617420D01*
X454300Y504300D02*
X367800Y417800D01*
X86700Y414400D02*
X86700Y476400D01*
X104914Y494614D01*
X312237Y494614D02*
X321600Y485251D01*
X312237Y494614D02*
X104914Y494614D01*
X321600Y485251D02*
X321600Y480050D01*
D45*
X86700Y414400D02*
X86700Y377700D01*
X88900Y375500D01*
D46*
X278461Y946497D02*
X278715Y946751D01*
X278461Y946497D02*
X278461Y907362D01*
X284674Y901148D02*
X289807Y901148D01*
X284674Y901148D02*
X278461Y907362D01*
X289807Y872708D02*
X282308Y865210D01*
X282308Y842194D01*
X285350Y839153D01*
X358781Y839153D01*
X384061Y813873D01*
X384061Y724757D01*
X376575Y717272D01*
X364448Y717272D01*
X364420Y717300D01*
X272215Y908535D02*
X272215Y946751D01*
X272215Y908535D02*
X265400Y901720D01*
X265400Y873280D02*
X277863Y860817D01*
X277863Y840353D01*
X283509Y834708D01*
X356940Y834708D01*
X379616Y812032D01*
X379616Y726599D01*
X375383Y722366D01*
X370000Y722366D01*
X364420Y722300D02*
X360078Y722300D01*
X364420Y722300D02*
X369935Y722300D01*
X370000Y722366D01*
D45*
X485011Y348373D02*
X518006Y348373D01*
D42*
X485849Y348535D02*
X485011Y348373D01*
D45*
X297600Y395550D02*
X289600Y395550D01*
X293192Y391142D02*
X297600Y395550D01*
X293192Y380916D02*
X287376Y375099D01*
X287376Y373939D01*
D44*
X287376Y373939D03*
D45*
X293192Y380916D02*
X293192Y391142D01*
X485011Y380162D02*
X485011Y348373D01*
X485011Y380162D02*
X485115Y380162D01*
D44*
X485115Y380162D03*
D45*
X138500Y648600D02*
X138500Y672306D01*
X138862Y672668D01*
D47*
X138862Y672668D03*
D42*
X214660Y820179D02*
X246001Y820179D01*
X246280Y819900D01*
X246660Y820279D02*
X276691Y820279D01*
X246660Y820279D02*
X246280Y819900D01*
X283015Y820468D02*
X312442Y820468D01*
X283015Y820468D02*
X276691Y820279D01*
X212444Y817964D02*
X190400Y817964D01*
X212444Y817964D02*
X214660Y820179D01*
X190400Y817964D02*
X182507Y817964D01*
X173812Y809269D01*
X176301Y667799D02*
X195500Y648600D01*
X312442Y820468D02*
X334181Y818902D01*
X338557Y814527D02*
X338557Y806286D01*
X338557Y800176D01*
X346433Y792300D01*
X364420Y792300D01*
X338557Y814527D02*
X334181Y818902D01*
D43*
X173812Y800049D03*
X176301Y667799D03*
D42*
X173812Y800049D02*
X173812Y809269D01*
X338557Y806286D02*
X338561Y806286D01*
D44*
X338561Y806286D03*
D48*
X429300Y832180D02*
X429300Y857083D01*
D42*
X427634Y858749D01*
D44*
X427634Y858749D03*
D48*
X494300Y850078D02*
X494300Y832180D01*
D42*
X494300Y850078D02*
X497738Y853516D01*
D44*
X497738Y853516D03*
D48*
X587003Y812300D02*
X601447Y826743D01*
X587003Y812300D02*
X579180Y812300D01*
X601447Y826743D02*
X601447Y836041D01*
D44*
X601447Y836041D03*
D48*
X605449Y742300D02*
X579180Y742300D01*
X605449Y742300D02*
X618896Y728853D01*
D44*
X618896Y728853D03*
D48*
X479300Y617420D02*
X479300Y608252D01*
X495351Y592201D02*
X495351Y585673D01*
D44*
X495351Y585673D03*
D48*
X495351Y592201D02*
X479300Y608252D01*
D44*
X339471Y756056D03*
D48*
X364349Y712371D02*
X364420Y712300D01*
X364349Y712371D02*
X355625Y712371D01*
X352400Y731971D02*
X347071Y737300D01*
X339471Y744900D01*
X339471Y756056D01*
X352400Y715596D02*
X355625Y712371D01*
X352400Y715596D02*
X352400Y731971D01*
X347071Y737300D02*
X364420Y737300D01*
D42*
X414300Y617420D02*
X414300Y609422D01*
X428701Y595020D01*
X436682Y595020D01*
X437011Y595349D01*
D44*
X437011Y595349D03*
D42*
X549300Y589889D02*
X549300Y617420D01*
X549300Y589889D02*
X546303Y586892D01*
D44*
X546303Y586892D03*
D45*
X666923Y606277D02*
X666923Y561414D01*
X666923Y606277D02*
X662940Y610260D01*
X629031Y610260D01*
X624611Y614680D01*
D44*
X624611Y614680D03*
D45*
X667656Y610260D02*
X704457Y563016D01*
X667656Y610260D02*
X662940Y610260D01*
D42*
X183000Y353900D02*
X134500Y305400D01*
X336907Y353900D02*
X455676Y472669D01*
X336907Y353900D02*
X183000Y353900D01*
D44*
X455676Y472669D03*
X628806Y750116D03*
D42*
X626623Y752300D01*
X579180Y752300D01*
X134500Y305400D02*
X116713Y323187D01*
X116713Y373913D01*
X350616Y347415D02*
X464210Y461010D01*
X201915Y347415D02*
X159900Y305400D01*
X201915Y347415D02*
X350616Y347415D01*
X642723Y739091D02*
X642711Y739104D01*
X464414Y461010D02*
X464210Y461010D01*
D44*
X464414Y461010D03*
X642723Y739091D03*
D42*
X642711Y739104D02*
X624673Y739104D01*
X616477Y747300D02*
X579180Y747300D01*
X616477Y747300D02*
X624673Y739104D01*
D43*
X704748Y494254D03*
D42*
X704457Y494545D02*
X704457Y534576D01*
X704457Y494545D02*
X704748Y494254D01*
X587398Y692300D02*
X579180Y692300D01*
X587398Y692300D02*
X595098Y700000D01*
X778993Y456578D02*
X778993Y322731D01*
X778993Y456578D02*
X741316Y494254D01*
X704748Y494254D01*
X755962Y299700D02*
X641086Y299700D01*
X755962Y299700D02*
X778993Y322731D01*
X639444Y700000D02*
X595098Y700000D01*
X639444Y700000D02*
X639445Y699999D01*
D44*
X639445Y699999D03*
D43*
X666620Y499504D03*
D42*
X666620Y520891D01*
X666923Y532974D01*
D43*
X635893Y690693D03*
D42*
X592675Y690693D01*
X589077Y687095D01*
X579385Y687095D01*
X579180Y687300D01*
X638251Y321545D02*
X765080Y321545D01*
X638251Y321545D02*
X615686Y299700D01*
X771677Y328143D02*
X771677Y445186D01*
X762508Y454355D01*
X711769Y454355D02*
X666620Y499504D01*
X771677Y328143D02*
X765080Y321545D01*
X762508Y454355D02*
X711769Y454355D01*
X424300Y832180D02*
X424300Y844862D01*
X419581Y849581D01*
X416465Y852697D01*
X406465Y862697D01*
X406465Y914793D01*
X449222Y880687D02*
X449222Y832258D01*
X449300Y832180D01*
X449222Y880687D02*
X436465Y893444D01*
X436465Y914793D01*
X459300Y891675D02*
X459300Y832180D01*
X459300Y891675D02*
X456465Y894511D01*
X456465Y914793D01*
X454300Y883805D02*
X454300Y832180D01*
X446465Y891640D02*
X446465Y914793D01*
X446465Y891640D02*
X454300Y883805D01*
X464300Y867413D02*
X464300Y832180D01*
X466123Y869235D02*
X466123Y914451D01*
X466123Y869235D02*
X464300Y867413D01*
X466123Y914451D02*
X466465Y914793D01*
X436465Y884092D02*
X440278Y880278D01*
X444300Y876256D01*
X444300Y832180D01*
X436465Y884092D02*
X426465Y894092D01*
X426465Y914793D01*
X426465Y880024D02*
X428245Y878245D01*
X439300Y867189D01*
X439300Y832180D01*
X426465Y880024D02*
X416465Y890024D01*
X416465Y914793D01*
D45*
X745126Y411275D02*
X726976Y393125D01*
X699185Y393125D01*
X396465Y896465D02*
X396465Y914793D01*
X396465Y896465D02*
X390000Y890000D01*
D44*
X390000Y890000D03*
D45*
X476465Y890995D02*
X476465Y914793D01*
X476465Y890995D02*
X481101Y886358D01*
D44*
X481101Y886358D03*
D45*
X584376Y903300D02*
X597278Y916203D01*
X584376Y903300D02*
X558013Y903300D01*
D44*
X558013Y903300D03*
D45*
X677278Y916203D02*
X677278Y883323D01*
X677266Y883310D01*
D44*
X677266Y883310D03*
D45*
X683319Y838700D02*
X710113Y838700D01*
X683319Y838700D02*
X677088Y844931D01*
D44*
X677088Y844931D03*
D45*
X698197Y758700D02*
X710113Y758700D01*
X698197Y758700D02*
X689964Y750467D01*
X689964Y717052D01*
X692551Y714465D01*
D44*
X692551Y714465D03*
D42*
X600000Y885156D02*
X557207Y885156D01*
X524300Y852249D01*
X524300Y832180D01*
X600000Y885156D02*
X617278Y902435D01*
X617278Y916203D01*
X627347Y901014D02*
X606617Y880284D01*
X560989Y880284D01*
X529300Y848595D01*
X529300Y832180D01*
X627347Y901014D02*
X627347Y916134D01*
X627278Y916203D01*
X637245Y900074D02*
X612067Y874896D01*
X564651Y874896D01*
X534300Y844545D01*
X534300Y832180D01*
X637245Y900074D02*
X637245Y916170D01*
X637278Y916203D01*
X647435Y902198D02*
X614630Y869393D01*
X568325Y869393D01*
X539300Y840369D01*
X539300Y832180D01*
X647435Y902198D02*
X647435Y916047D01*
X647278Y916203D01*
X667195Y880812D02*
X588683Y802300D01*
X579180Y802300D01*
X667195Y880812D02*
X667195Y916119D01*
X667278Y916203D01*
X469347Y832227D02*
X469300Y832180D01*
X469347Y832227D02*
X469347Y840054D01*
X494589Y865295D01*
X529024Y865295D01*
X555455Y891726D01*
X593580Y891726D01*
X607278Y905424D01*
X607278Y916203D01*
X668969Y693429D02*
X657840Y682300D01*
X668969Y693429D02*
X668969Y762019D01*
X696077Y789127D01*
X657840Y682300D02*
X579180Y682300D01*
X696077Y789127D02*
X709686Y789127D01*
X710113Y788700D01*
X628514Y797300D02*
X579180Y797300D01*
X659914Y828700D02*
X710113Y828700D01*
X659914Y828700D02*
X628514Y797300D01*
X651667Y798333D02*
X652034Y798700D01*
X651667Y798333D02*
X615634Y762300D01*
X579180Y762300D01*
X652034Y798700D02*
X662034Y808700D01*
X710113Y808700D01*
X524300Y617420D02*
X524300Y600805D01*
X522859Y599364D02*
X522859Y522935D01*
X522859Y599364D02*
X524300Y600805D01*
X522859Y522935D02*
X522724Y522935D01*
D43*
X522724Y522935D03*
X695164Y659428D03*
D42*
X682251Y672341D02*
X682251Y756269D01*
X682251Y672341D02*
X695164Y659428D01*
X694682Y768700D02*
X710113Y768700D01*
X694682Y768700D02*
X682251Y756269D01*
X633134Y792300D02*
X579180Y792300D01*
X659534Y818700D02*
X710113Y818700D01*
X659534Y818700D02*
X633134Y792300D01*
X628134Y757300D02*
X579180Y757300D01*
X669534Y798700D02*
X710113Y798700D01*
X669534Y798700D02*
X628134Y757300D01*
X621964Y864561D02*
X657366Y899963D01*
X559300Y845093D02*
X559300Y832180D01*
X559300Y845093D02*
X578768Y864561D01*
X621964Y864561D01*
X657366Y899963D02*
X657366Y916115D01*
X657278Y916203D01*
X660155Y677300D02*
X579180Y677300D01*
X660155Y677300D02*
X675860Y693005D01*
X675860Y759222D01*
X695147Y778510D01*
X709923Y778510D01*
X710113Y778700D01*
X686185Y393125D02*
X685193Y392133D01*
D45*
X655091Y392133D01*
D42*
X655169Y392212D01*
D45*
X655169Y432705D01*
D42*
X259350Y465800D02*
X247233Y465800D01*
X230048Y448615D02*
X230048Y378563D01*
X246329Y362282D01*
X230048Y448615D02*
X247233Y465800D01*
D43*
X341177Y371916D03*
X773735Y565607D03*
D42*
X773735Y598729D01*
X767461Y605003D01*
X717372Y605003D01*
X680075Y642300D02*
X579180Y642300D01*
X680075Y642300D02*
X717372Y605003D01*
X340878Y371617D02*
X331543Y362282D01*
X340878Y371617D02*
X341177Y371916D01*
X331543Y362282D02*
X246329Y362282D01*
X329600Y382895D02*
X329600Y395550D01*
X329600Y382895D02*
X340878Y371617D01*
X229954Y378563D02*
X229537Y378147D01*
X229954Y378563D02*
X230048Y378563D01*
X294323Y627655D02*
X294323Y646377D01*
X330000Y657300D02*
X364420Y657300D01*
D46*
X315640Y671660D02*
X315640Y679474D01*
X315640Y671660D02*
X330000Y657300D01*
X315640Y667694D02*
X315640Y679474D01*
X315640Y667694D02*
X294323Y646377D01*
D42*
X254763Y596622D02*
X255051Y596334D01*
X364420Y649783D02*
X364420Y652300D01*
X364420Y649783D02*
X364420Y647300D01*
X276413Y678891D02*
X255051Y658529D01*
X255051Y610000D01*
X255051Y596334D01*
X254763Y590842D02*
X266315Y579290D01*
X254763Y590842D02*
X254763Y596622D01*
X266315Y579290D02*
X266315Y569950D01*
X270686Y612292D02*
X255323Y627655D01*
X344043Y649783D02*
X364420Y649783D01*
X306553Y612292D02*
X270686Y612292D01*
X306553Y612292D02*
X344043Y649783D01*
X270434Y612292D02*
X254763Y596622D01*
X270434Y612292D02*
X270686Y612292D01*
X276413Y719891D02*
X241109Y718891D01*
X276413Y719891D02*
X277216Y719694D01*
X332832Y700000D02*
X332832Y673796D01*
X344327Y662300D01*
X364420Y662300D01*
X181919Y784255D02*
X181864Y784200D01*
D43*
X181864Y784200D03*
X241109Y718891D03*
D42*
X181919Y796483D02*
X190400Y804964D01*
X181919Y796483D02*
X181919Y784255D01*
D46*
X303554Y720000D02*
X315640Y707914D01*
X277522Y720000D02*
X277216Y719694D01*
X277522Y720000D02*
X303554Y720000D01*
X315640Y707914D02*
X324918Y707914D01*
X332832Y700000D01*
D42*
X384300Y617420D02*
X376015Y609135D01*
X313541Y609135D01*
X301028Y596622D01*
X293763Y596622D01*
X195500Y605600D02*
X138500Y605600D01*
X138500Y595500D01*
X167900Y566100D01*
X195500Y593700D01*
X195500Y605600D01*
X167900Y566100D02*
X250535Y566100D01*
X270764Y545871D01*
X420289Y545871D01*
X427660Y553242D01*
X427660Y586128D02*
X409300Y604488D01*
X409300Y617420D01*
X427660Y586128D02*
X427660Y553242D01*
X618136Y575333D02*
X618136Y606673D01*
X587509Y637300D01*
X579180Y637300D01*
X399300Y617420D02*
X399300Y609079D01*
X386994Y596773D02*
X386994Y584632D01*
X399976Y571650D01*
X386994Y596773D02*
X399300Y609079D01*
X399976Y571650D02*
X401577Y571650D01*
X404300Y585373D02*
X404300Y617420D01*
X404300Y585373D02*
X401577Y582650D01*
X246001Y781179D02*
X214660Y781179D01*
X246001Y781179D02*
X246280Y780900D01*
X246660Y781279D02*
X276691Y781279D01*
X246660Y781279D02*
X246280Y780900D01*
X311675Y780235D02*
X312442Y779468D01*
X311675Y780235D02*
X276691Y781279D01*
D45*
X312068Y781179D02*
X214660Y781179D01*
X312068Y781179D02*
X312442Y779468D01*
D42*
X59700Y476400D02*
X59700Y414400D01*
D45*
X83874Y979884D02*
X84988Y980999D01*
X83874Y979884D02*
X83874Y960923D01*
D49*
X84988Y980999D03*
D45*
X111781Y899936D02*
X116704Y895013D01*
X151651Y895013D01*
X151651Y931939D01*
X152019Y932307D01*
D49*
X152019Y932307D03*
D45*
X250647Y929437D02*
X259311Y938100D01*
X250647Y929437D02*
X219862Y929437D01*
X219710Y929589D01*
D49*
X219710Y929589D03*
D45*
X214660Y781179D02*
X196390Y781179D01*
X194513Y783057D01*
D49*
X194513Y783057D03*
D45*
X312442Y779468D02*
X336640Y780861D01*
X338353Y782574D01*
D49*
X338353Y782574D03*
D45*
X119700Y820276D02*
X119700Y837098D01*
X123038Y840435D01*
D49*
X123038Y840435D03*
D45*
X167900Y527100D02*
X167900Y510394D01*
X167386Y509880D01*
D49*
X167386Y509880D03*
D45*
X59868Y476568D02*
X59700Y476400D01*
X59868Y476568D02*
X59868Y496316D01*
D49*
X59868Y496316D03*
D45*
X59700Y414400D02*
X59700Y394878D01*
X59157Y394335D01*
D49*
X59157Y394335D03*
D45*
X58300Y333611D02*
X58300Y305400D01*
X58300Y333611D02*
X58826Y334137D01*
D49*
X58826Y334137D03*
D50*
X309778Y391728D02*
X313600Y395550D01*
X309778Y391728D02*
X309778Y391372D01*
D49*
X309506Y373974D03*
D50*
X309778Y374246D02*
X309778Y391372D01*
X309778Y374246D02*
X309506Y373974D01*
D45*
X309778Y391372D02*
X305600Y395550D01*
X444864Y379463D02*
X444849Y379132D01*
X444849Y348535D01*
X444864Y379463D02*
X443597Y380730D01*
D49*
X443597Y380730D03*
D51*
X643575Y357479D02*
X699872Y357479D01*
X700481Y356870D01*
D52*
X700481Y356870D03*
D51*
X734675Y356870D01*
X744782Y366978D01*
D45*
X581279Y330800D02*
X563706Y348373D01*
X581279Y330800D02*
X581279Y330600D01*
D49*
X581279Y330600D03*
D45*
X293929Y569950D02*
X279315Y569950D01*
X293929Y569950D02*
X294183Y569697D01*
D49*
X294183Y569697D03*
D45*
X53852Y730956D02*
X53852Y756356D01*
X53852Y730956D02*
X53852Y727104D01*
X36322Y709574D01*
D49*
X36322Y709574D03*
D42*
X259215Y938196D02*
X259215Y946751D01*
X259215Y938196D02*
X259311Y938100D01*
D45*
X486465Y914793D02*
X486465Y905582D01*
X495859Y896188D01*
D49*
X495859Y896188D03*
D45*
X687278Y897682D02*
X687278Y916203D01*
X687278Y897682D02*
X690372Y894588D01*
D53*
X690372Y894588D03*
D45*
X710113Y748700D02*
X702285Y740871D01*
X702285Y734746D01*
D44*
X702285Y734746D03*
D45*
X590286Y321593D02*
X590286Y299700D01*
X590286Y321593D02*
X581279Y330600D01*
D42*
X129200Y832342D02*
X151651Y866573D01*
X129200Y832342D02*
X129200Y820276D01*
X336449Y763754D02*
X344996Y772300D01*
X364420Y772300D01*
X143154Y806322D02*
X129200Y820276D01*
X143154Y783057D02*
X162457Y763754D01*
X336449Y763754D01*
X143154Y783057D02*
X143154Y806322D01*
D45*
X36990Y873795D02*
X36990Y916474D01*
D42*
X36990Y873795D02*
X36977Y873782D01*
D45*
X75273Y916474D02*
X83874Y930923D01*
X75273Y916474D02*
X36990Y916474D01*
X36977Y873782D02*
X36977Y849430D01*
X53852Y832556D01*
D48*
X75568Y832556D02*
X110200Y797924D01*
X75568Y832556D02*
X53852Y832556D01*
D42*
X559300Y617420D02*
X559300Y575169D01*
X581136Y553333D01*
D54*
X618136Y553333D02*
X618136Y525093D01*
X618592Y524637D01*
D49*
X618592Y524637D03*
D54*
X581136Y575333D02*
X581136Y593633D01*
X581355Y593852D01*
D49*
X581355Y593852D03*
D42*
X104849Y284251D02*
X83700Y305400D01*
X330835Y284251D02*
X534145Y487561D01*
X330835Y284251D02*
X104849Y284251D01*
X534145Y487561D02*
X534145Y608596D01*
X534300Y608751D01*
X534300Y617420D01*
X219045Y339145D02*
X185300Y305400D01*
X219045Y339145D02*
X356410Y339145D01*
X474300Y602304D02*
X474300Y617420D01*
X480746Y463481D02*
X356410Y339145D01*
X480746Y463481D02*
X480746Y595859D01*
X474300Y602304D01*
X360416Y331562D02*
X236862Y331562D01*
X210700Y305400D01*
X360416Y331562D02*
X529311Y500456D01*
X529300Y500700D02*
X529300Y617420D01*
X529300Y500700D02*
X529311Y500689D01*
X529311Y500456D01*
D45*
X110200Y820276D02*
X110200Y830000D01*
X110200Y857525D01*
D42*
X111781Y858936D01*
D45*
X612169Y432705D02*
X612169Y392212D01*
D42*
X612091Y392133D01*
D45*
X612091Y364995D01*
D42*
X604575Y357479D01*
D45*
X612169Y432705D02*
X560164Y432705D01*
D42*
X540856Y413397D01*
D45*
X526974Y427279D01*
X491312Y427279D01*
D44*
X491312Y427279D03*
X100000Y840000D03*
D45*
X110000Y830000D01*
X110200Y830000D01*
D46*
X53852Y807156D02*
X43151Y796455D01*
X32353Y796455D01*
X17666Y781767D01*
X17666Y690671D01*
X36798Y671538D01*
X109252Y671538D01*
X179838Y742125D01*
X322371Y742125D01*
X341546Y722950D01*
X341546Y695391D01*
X349608Y687328D01*
X364392Y687328D02*
X364420Y687300D01*
X364392Y687328D02*
X349608Y687328D01*
X56889Y807156D02*
X53852Y807156D01*
X56889Y807156D02*
X68783Y795261D01*
X79229Y795261D01*
X100006Y774484D01*
X113894Y774484D01*
X119933Y780523D01*
X119774Y780790D01*
X119774Y797998D01*
X119700Y797924D01*
X53852Y781756D02*
X43598Y792010D01*
X34195Y792010D01*
X22111Y779926D01*
X22111Y692512D01*
X38640Y675983D01*
X107410Y675983D01*
X177997Y746570D01*
X324212Y746570D01*
X346113Y724668D01*
X346113Y697109D01*
X350916Y692306D01*
X360000Y692306D01*
X360006Y692300D02*
X364420Y692300D01*
X360006Y692300D02*
X360000Y692306D01*
X59723Y781756D02*
X53852Y781756D01*
X59723Y781756D02*
X68783Y790816D01*
X77388Y790816D01*
X98165Y770039D01*
X117532Y770039D01*
X128927Y781434D01*
X128927Y797651D01*
X129200Y797924D01*
D55*
X0Y0D02*
X790152Y-457D01*
X790000Y995073D01*
X0Y995073D01*
X0Y995070D01*
X0Y0D01*
X291215Y944996D02*
X291281Y945582D01*
X291412Y946157D01*
X291607Y946714D01*
X291862Y947245D01*
X292176Y947744D01*
X292544Y948205D01*
X292961Y948622D01*
X293422Y948990D01*
X293921Y949304D01*
X294452Y949559D01*
X295009Y949754D01*
X295584Y949885D01*
X296170Y949951D01*
X296759Y949951D01*
X297345Y949885D01*
X297920Y949754D01*
X298477Y949559D01*
X299008Y949304D01*
X299507Y948990D01*
X299968Y948622D01*
X300385Y948205D01*
X300753Y947744D01*
X301067Y947245D01*
X301323Y946714D01*
X301517Y946157D01*
X301649Y945582D01*
X301715Y944996D01*
X301715Y944407D01*
X301649Y943821D01*
X301517Y943246D01*
X301323Y942689D01*
X301067Y942158D01*
X300753Y941659D01*
X300385Y941198D01*
X299968Y940781D01*
X299507Y940413D01*
X299008Y940099D01*
X298477Y939843D01*
X297920Y939649D01*
X297345Y939517D01*
X296759Y939451D01*
X296170Y939451D01*
X295584Y939517D01*
X295009Y939649D01*
X294452Y939843D01*
X293921Y940099D01*
X293422Y940413D01*
X292961Y940781D01*
X292544Y941198D01*
X292176Y941659D01*
X291862Y942158D01*
X291607Y942689D01*
X291412Y943246D01*
X291281Y943821D01*
X291215Y944407D01*
X291215Y944996D01*
X242715Y944996D02*
X242781Y945582D01*
X242912Y946157D01*
X243107Y946714D01*
X243362Y947245D01*
X243676Y947744D01*
X244044Y948205D01*
X244461Y948622D01*
X244922Y948990D01*
X245421Y949304D01*
X245952Y949559D01*
X246509Y949754D01*
X247084Y949885D01*
X247670Y949951D01*
X248259Y949951D01*
X248845Y949885D01*
X249420Y949754D01*
X249977Y949559D01*
X250508Y949304D01*
X251007Y948990D01*
X251468Y948622D01*
X251885Y948205D01*
X252253Y947744D01*
X252567Y947245D01*
X252823Y946714D01*
X253017Y946157D01*
X253149Y945582D01*
X253215Y944996D01*
X253215Y944407D01*
X253149Y943821D01*
X253017Y943246D01*
X252823Y942689D01*
X252567Y942158D01*
X252253Y941659D01*
X251885Y941198D01*
X251468Y940781D01*
X251007Y940413D01*
X250508Y940099D01*
X249977Y939843D01*
X249420Y939649D01*
X248845Y939517D01*
X248259Y939451D01*
X247670Y939451D01*
X247084Y939517D01*
X246509Y939649D01*
X245952Y939843D01*
X245421Y940099D01*
X244922Y940413D01*
X244461Y940781D01*
X244044Y941198D01*
X243676Y941659D01*
X243362Y942158D01*
X243107Y942689D01*
X242912Y943246D01*
X242781Y943821D01*
X242715Y944407D01*
X242715Y944996D01*
M02*
