G04 EAGLE Gerber RS-274X export*
G75*
%MOMM*%
%FSLAX34Y34*%
%LPD*%
%INSoldermask Bottom*%
%IPPOS*%
%AMOC8*
5,1,8,0,0,1.08239X$1,22.5*%
G01*
%ADD10P,3.656530X8X22.500000*%
%ADD11C,1.524000*%
%ADD12R,2.743200X2.743200*%
%ADD13C,1.253200*%
%ADD14R,1.261200X1.261200*%
%ADD15C,1.261200*%
%ADD16C,2.184400*%
%ADD17P,1.951982X8X22.500000*%
%ADD18C,0.959600*%
%ADD19C,0.983200*%
%ADD20C,1.389600*%
%ADD21C,1.059600*%
%ADD22C,1.703200*%
%ADD23C,1.089600*%


D10*
X745126Y411275D03*
X744782Y366978D03*
D11*
X641086Y306304D02*
X641086Y293096D01*
X615686Y293096D02*
X615686Y306304D01*
X590286Y306304D02*
X590286Y293096D01*
X564886Y293096D02*
X564886Y306304D01*
X539486Y306304D02*
X539486Y293096D01*
D12*
X309465Y975001D03*
X234965Y975001D03*
D13*
X296465Y944701D03*
X247965Y944701D03*
D14*
X401577Y571650D03*
D15*
X401577Y582650D03*
D11*
X32900Y312004D02*
X32900Y298796D01*
X58300Y298796D02*
X58300Y312004D01*
X83700Y312004D02*
X83700Y298796D01*
X109100Y298796D02*
X109100Y312004D01*
X134500Y312004D02*
X134500Y298796D01*
X159900Y298796D02*
X159900Y312004D01*
X185300Y312004D02*
X185300Y298796D01*
X210700Y298796D02*
X210700Y312004D01*
D16*
X63758Y730956D02*
X43946Y730956D01*
X43946Y756356D02*
X63758Y756356D01*
X63758Y781756D02*
X43946Y781756D01*
X43946Y807156D02*
X63758Y807156D01*
X63758Y832556D02*
X43946Y832556D01*
D17*
X38900Y621900D03*
X580828Y523029D03*
X229537Y378147D03*
X88900Y375500D03*
X200315Y372773D03*
X116713Y373913D03*
X664040Y655686D03*
X628931Y656322D03*
D18*
X470302Y587246D03*
D19*
X441503Y511861D03*
D18*
X462274Y570628D03*
D19*
X441173Y570763D03*
X287376Y373939D03*
X485115Y380162D03*
D20*
X138862Y672668D03*
D18*
X173812Y800049D03*
X176301Y667799D03*
D19*
X338561Y806286D03*
X427634Y858749D03*
X497738Y853516D03*
X601447Y836041D03*
X618896Y728853D03*
X495351Y585673D03*
X339471Y756056D03*
X437011Y595349D03*
X546303Y586892D03*
X624611Y614680D03*
X455676Y472669D03*
X628806Y750116D03*
X464414Y461010D03*
X642723Y739091D03*
D18*
X704748Y494254D03*
D19*
X639445Y699999D03*
D18*
X666620Y499504D03*
X635893Y690693D03*
D19*
X390000Y890000D03*
X481101Y886358D03*
X558013Y903300D03*
X677266Y883310D03*
X677088Y844931D03*
X692551Y714465D03*
D18*
X522724Y522935D03*
X695164Y659428D03*
X341177Y371916D03*
X773735Y565607D03*
X181864Y784200D03*
X241109Y718891D03*
D21*
X84988Y980999D03*
X152019Y932307D03*
X219710Y929589D03*
X194513Y783057D03*
X338353Y782574D03*
X123038Y840435D03*
X167386Y509880D03*
X59868Y496316D03*
X59157Y394335D03*
X58826Y334137D03*
X309506Y373974D03*
X443597Y380730D03*
D22*
X700481Y356870D03*
D21*
X581279Y330600D03*
X294183Y569697D03*
X36322Y709574D03*
X495859Y896188D03*
D23*
X690372Y894588D03*
D19*
X702285Y734746D03*
D21*
X618592Y524637D03*
X581355Y593852D03*
D19*
X491312Y427279D03*
X100000Y840000D03*
M02*
