G04 EAGLE Gerber RS-274X export*
G75*
%MOMM*%
%FSLAX34Y34*%
%LPD*%
%INVias*%
%IPPOS*%
%AMOC8*
5,1,8,0,0,1.08239X$1,22.5*%
G01*
%ADD10C,0.756400*%
%ADD11C,0.780000*%
%ADD12C,1.186400*%
%ADD13C,0.856400*%
%ADD14C,1.500000*%
%ADD15C,0.886400*%
%ADD16C,0.254000*%


D10*
X470302Y587246D03*
D11*
X441503Y511861D03*
D10*
X462274Y570628D03*
D11*
X441173Y570763D03*
X287376Y373939D03*
X485115Y380162D03*
D12*
X138862Y672668D03*
D10*
X173812Y800049D03*
X176301Y667799D03*
D11*
X338561Y806286D03*
X427634Y858749D03*
X497738Y853516D03*
X601447Y836041D03*
X618896Y728853D03*
X495351Y585673D03*
X339471Y756056D03*
X437011Y595349D03*
X546303Y586892D03*
X624611Y614680D03*
X455676Y472669D03*
X628806Y750116D03*
X464414Y461010D03*
X642723Y739091D03*
D10*
X704748Y494254D03*
D11*
X639445Y699999D03*
D10*
X666620Y499504D03*
X635893Y690693D03*
D11*
X390000Y890000D03*
X481101Y886358D03*
X558013Y903300D03*
X677266Y883310D03*
X677088Y844931D03*
X692551Y714465D03*
D10*
X522724Y522935D03*
X695164Y659428D03*
X341177Y371916D03*
X773735Y565607D03*
X181864Y784200D03*
X241109Y718891D03*
D13*
X84988Y980999D03*
X152019Y932307D03*
X219710Y929589D03*
X194513Y783057D03*
X338353Y782574D03*
X123038Y840435D03*
X167386Y509880D03*
X59868Y496316D03*
X59157Y394335D03*
X58826Y334137D03*
X309506Y373974D03*
X443597Y380730D03*
D14*
X700481Y356870D03*
D13*
X581279Y330600D03*
X294183Y569697D03*
X36322Y709574D03*
X495859Y896188D03*
D15*
X690372Y894588D03*
D11*
X702285Y734746D03*
D13*
X618592Y524637D03*
X581355Y593852D03*
D11*
X491312Y427279D03*
X100000Y840000D03*
D16*
X291215Y944996D02*
X291281Y945582D01*
X291412Y946157D01*
X291607Y946714D01*
X291862Y947245D01*
X292176Y947744D01*
X292544Y948205D01*
X292961Y948622D01*
X293422Y948990D01*
X293921Y949304D01*
X294452Y949559D01*
X295009Y949754D01*
X295584Y949885D01*
X296170Y949951D01*
X296759Y949951D01*
X297345Y949885D01*
X297920Y949754D01*
X298477Y949559D01*
X299008Y949304D01*
X299507Y948990D01*
X299968Y948622D01*
X300385Y948205D01*
X300753Y947744D01*
X301067Y947245D01*
X301323Y946714D01*
X301517Y946157D01*
X301649Y945582D01*
X301715Y944996D01*
X301715Y944407D01*
X301649Y943821D01*
X301517Y943246D01*
X301323Y942689D01*
X301067Y942158D01*
X300753Y941659D01*
X300385Y941198D01*
X299968Y940781D01*
X299507Y940413D01*
X299008Y940099D01*
X298477Y939843D01*
X297920Y939649D01*
X297345Y939517D01*
X296759Y939451D01*
X296170Y939451D01*
X295584Y939517D01*
X295009Y939649D01*
X294452Y939843D01*
X293921Y940099D01*
X293422Y940413D01*
X292961Y940781D01*
X292544Y941198D01*
X292176Y941659D01*
X291862Y942158D01*
X291607Y942689D01*
X291412Y943246D01*
X291281Y943821D01*
X291215Y944407D01*
X291215Y944996D01*
X242715Y944996D02*
X242781Y945582D01*
X242912Y946157D01*
X243107Y946714D01*
X243362Y947245D01*
X243676Y947744D01*
X244044Y948205D01*
X244461Y948622D01*
X244922Y948990D01*
X245421Y949304D01*
X245952Y949559D01*
X246509Y949754D01*
X247084Y949885D01*
X247670Y949951D01*
X248259Y949951D01*
X248845Y949885D01*
X249420Y949754D01*
X249977Y949559D01*
X250508Y949304D01*
X251007Y948990D01*
X251468Y948622D01*
X251885Y948205D01*
X252253Y947744D01*
X252567Y947245D01*
X252823Y946714D01*
X253017Y946157D01*
X253149Y945582D01*
X253215Y944996D01*
X253215Y944407D01*
X253149Y943821D01*
X253017Y943246D01*
X252823Y942689D01*
X252567Y942158D01*
X252253Y941659D01*
X251885Y941198D01*
X251468Y940781D01*
X251007Y940413D01*
X250508Y940099D01*
X249977Y939843D01*
X249420Y939649D01*
X248845Y939517D01*
X248259Y939451D01*
X247670Y939451D01*
X247084Y939517D01*
X246509Y939649D01*
X245952Y939843D01*
X245421Y940099D01*
X244922Y940413D01*
X244461Y940781D01*
X244044Y941198D01*
X243676Y941659D01*
X243362Y942158D01*
X243107Y942689D01*
X242912Y943246D01*
X242781Y943821D01*
X242715Y944407D01*
X242715Y944996D01*
M02*
